<svg width="21" height="15" viewBox="0 0 21 15" fill="none" xmlns="http://www.w3.org/2000/svg">
<path d="M12.1792 14.3135C11.9209 14.0552 11.7969 13.743 11.8072 13.3771C11.8184 13.0111 11.9532 12.699 12.2115 12.4406L15.8605 8.79166H1.45841C1.09244 8.79166 0.785457 8.66766 0.537457 8.41966C0.290318 8.17252 0.166748 7.86596 0.166748 7.49999C0.166748 7.13402 0.290318 6.82703 0.537457 6.57903C0.785457 6.33189 1.09244 6.20833 1.45841 6.20833H15.8605L12.1792 2.52707C11.9209 2.26874 11.7917 1.96176 11.7917 1.60612C11.7917 1.25134 11.9209 0.944783 12.1792 0.68645C12.4376 0.428117 12.7446 0.29895 13.1002 0.29895C13.455 0.29895 13.7615 0.428117 14.0199 0.68645L19.9292 6.59583C20.0584 6.72499 20.1501 6.86492 20.2044 7.01562C20.2578 7.16631 20.2845 7.32777 20.2845 7.49999C20.2845 7.67221 20.2578 7.83367 20.2044 7.98437C20.1501 8.13506 20.0584 8.27499 19.9292 8.40416L13.9876 14.3458C13.7508 14.5826 13.455 14.701 13.1002 14.701C12.7446 14.701 12.4376 14.5719 12.1792 14.3135Z" fill="#CBF7B0"/>
</svg>
