<svg width="50" height="50" viewBox="0 0 50 50" fill="none" xmlns="http://www.w3.org/2000/svg">
<path d="M6.24996 35.4167H43.75C44.8958 35.4167 45.8333 36.3542 45.8333 37.5C45.8333 38.6458 44.8958 39.5833 43.75 39.5833H6.24996C5.10413 39.5833 4.16663 38.6458 4.16663 37.5C4.16663 36.3542 5.10413 35.4167 6.24996 35.4167ZM28.8333 16.2292C29.1027 15.5947 29.211 14.9035 29.1485 14.2171C29.086 13.5307 28.8548 12.8704 28.4753 12.295C28.0958 11.7196 27.5799 11.247 26.9736 10.9193C26.3672 10.5915 25.6892 10.4189 25 10.4167C24.3107 10.4189 23.6327 10.5915 23.0263 10.9193C22.42 11.247 21.9041 11.7196 21.5246 12.295C21.1451 12.8704 20.9139 13.5307 20.8514 14.2171C20.789 14.9035 20.8972 15.5947 21.1666 16.2292C13.0208 17.9167 6.81246 24.8542 6.24996 33.3333H43.75C43.1875 24.8542 36.9791 17.9167 28.8333 16.2292Z" fill="#CBF7B0"/>
</svg>
