<svg width="34" height="42" viewBox="0 0 34 42" fill="none" xmlns="http://www.w3.org/2000/svg">
<path d="M31.5835 10.5834H25.3335V8.50008C25.3335 6.28994 24.4555 4.17033 22.8927 2.60753C21.3299 1.04472 19.2103 0.166748 17.0002 0.166748C14.79 0.166748 12.6704 1.04472 11.1076 2.60753C9.5448 4.17033 8.66683 6.28994 8.66683 8.50008V10.5834H2.41683C1.86429 10.5834 1.33439 10.8029 0.943691 11.1936C0.55299 11.5843 0.333496 12.1142 0.333496 12.6667V35.5834C0.333496 37.241 0.991977 38.8307 2.16408 40.0028C3.33618 41.1749 4.92589 41.8334 6.5835 41.8334H27.4168C29.0744 41.8334 30.6641 41.1749 31.8362 40.0028C33.0083 38.8307 33.6668 37.241 33.6668 35.5834V12.6667C33.6668 12.1142 33.4473 11.5843 33.0566 11.1936C32.6659 10.8029 32.136 10.5834 31.5835 10.5834ZM12.8335 8.50008C12.8335 7.39501 13.2725 6.3352 14.0539 5.5538C14.8353 4.7724 15.8951 4.33342 17.0002 4.33342C18.1052 4.33342 19.165 4.7724 19.9464 5.5538C20.7278 6.3352 21.1668 7.39501 21.1668 8.50008V10.5834H12.8335V8.50008ZM29.5002 35.5834C29.5002 36.136 29.2807 36.6659 28.89 37.0566C28.4993 37.4473 27.9694 37.6668 27.4168 37.6668H6.5835C6.03096 37.6668 5.50106 37.4473 5.11036 37.0566C4.71966 36.6659 4.50016 36.136 4.50016 35.5834V14.7501H8.66683V16.8334C8.66683 17.386 8.88632 17.9159 9.27702 18.3066C9.66772 18.6973 10.1976 18.9167 10.7502 18.9167C11.3027 18.9167 11.8326 18.6973 12.2233 18.3066C12.614 17.9159 12.8335 17.386 12.8335 16.8334V14.7501H21.1668V16.8334C21.1668 17.386 21.3863 17.9159 21.777 18.3066C22.1677 18.6973 22.6976 18.9167 23.2502 18.9167C23.8027 18.9167 24.3326 18.6973 24.7233 18.3066C25.114 17.9159 25.3335 17.386 25.3335 16.8334V14.7501H29.5002V35.5834Z" fill="white"/>
</svg>
