<?xml version="1.0" encoding="utf-8"?>
<!-- Generator: Adobe Illustrator 26.4.1, SVG Export Plug-In . SVG Version: 6.00 Build 0)  -->
<svg version="1.1" id="Calque_1" xmlns="http://www.w3.org/2000/svg" xmlns:xlink="http://www.w3.org/1999/xlink" x="0px" y="0px"
	 viewBox="0 0 700 700" style="enable-background:new 0 0 700 700;" xml:space="preserve">
<style type="text/css">
	.st0{fill:#FFFFFF;stroke:#FFFFFF;stroke-miterlimit:10;}
</style>
<g>
	<path class="st0" d="M606.3,524l-40.5-204v-0.2l0,0c-2.3-9.7-7-18.6-13.7-26.1l-5-19.8c-1.2-4.7-3.8-8.8-7.4-12
		c-3.6-3.1-8.2-5.1-12.9-5.6l-31.9-3.4c-8-0.9-15.9,2.4-20.9,8.7l-7.3,9.2h-9l-1.4,0.9l0,0c-4.2,3-8,6.6-11.3,10.6
		c-0.3,0.3-0.6,0.6-0.8,0.9h-88.6v-25.4c0-6.1,4.9-11,11-11h66c6.6-0.6,12.4-4.4,15.5-10.2s3.1-12.8-0.1-18.6s-9.1-9.6-15.6-10
		l-164.7-0.4l0,0c-3.1,0.1-5.9-2.1-6.5-5.1c-0.3-1.7,0.1-3.5,1.2-4.8c1.3-1.6,3.2-2.5,5.2-2.5h68.2c5.3,0,10.3-2.1,14-5.8
		c3.7-3.7,5.8-8.8,5.8-14V95.2h-11.2v80.2c0,4.8-3.9,8.7-8.7,8.6h-68.2c-5.4,0-10.5,2.4-13.9,6.6c-3.2,3.9-4.5,9.1-3.5,14.1
		c0.8,4,3,7.6,6.2,10.2c3.2,2.6,7.2,3.9,11.3,3.9l164.7,0.4c4,0.7,6.9,4.2,6.9,8.2c0.1,4-2.7,7.5-6.6,8.2h-66
		c-5.9,0-11.5,2.3-15.7,6.5s-6.5,9.8-6.5,15.7v25.4H254c-0.2-0.3-0.5-0.6-0.8-0.9l0,0c-3.3-4-7.1-7.5-11.3-10.6l-1.4-0.9h-7.2
		l-7.3-9.2c-5-6.3-12.9-9.6-20.9-8.7l-31.9,3.4l0,0c-4.8,0.5-9.3,2.5-12.9,5.6c-3.6,3.2-6.2,7.3-7.4,12l-5.1,20.1l0,0
		c-6.6,7.4-11.2,16.3-13.5,26L93.7,523.6c-3.9,19.5,0.9,39.8,13.2,55.4c11.8,15.2,29.7,24.5,48.9,25.4c1.1,0,2.1,0.1,3.2,0.1
		c16.2,0.4,32-5.2,44.4-15.7c12.4-10.5,20.5-25.1,22.9-41.2c1-8,3.7-15.8,8-22.7l0.3-0.5c12.2-18.4,32.8-29.4,54.8-29.3H410
		c20.1,0,39.1,9.2,51.6,24.9c1.6,2,3,4,4.2,5.8c4.2,6.4,6.8,13.7,7.7,21.3c2.2,16.2,10.3,30.9,22.7,41.6
		c12.4,10.6,28.3,16.3,44.6,16c1,0,2.1,0,3.1-0.1c19.2-0.9,37.1-10.1,48.9-25.3C605.3,563.8,610.2,543.5,606.3,524L606.3,524z
		 M482.7,268.7c2.6-3.3,6.8-5,11-4.6l31.9,3.4c5.1,0.5,9.4,4.2,10.7,9.2l1.2,4.7l0,0c-11.5-7-24.8-10.6-38.2-10.5H481L482.7,268.7z
		 M429,294.5l-32.4,56h-93.9l-33.4-56H429z M174.4,267.4l31.9-3.4c4.2-0.4,8.3,1.3,11,4.6l1.8,2.2H201c-13.5-0.1-26.8,3.6-38.4,10.7
		l1.2-4.9C165,271.7,169.3,268,174.4,267.4L174.4,267.4z M584.2,572.5c-9.8,12.6-24.7,20.3-40.6,21c-0.9,0-1.7,0.1-2.6,0.1l0,0
		c-13.6,0.3-26.8-4.5-37.2-13.3c-10.4-8.8-17.1-21.1-19-34.6c-1.1-9.3-4.4-18.2-9.5-26c-1.4-2-2.9-4.2-4.7-6.5l0,0
		c-14.6-18.5-36.9-29.3-60.5-29.3H289.5c-25.8-0.1-49.9,12.8-64.1,34.3l-0.4,0.6c-5.2,8.2-8.5,17.5-9.6,27.2
		c-2,13.4-8.8,25.6-19.2,34.2c-10.4,8.7-23.5,13.3-37.1,12.9c-0.9,0-1.8,0-2.7-0.1l0,0c-16-0.8-30.8-8.5-40.6-21.1
		c-10.3-13.1-14.3-30-11.1-46.3l40.5-203.4c5.6-23.7,28.5-40.3,55.7-40.3h36.2c2.8,2.4,5.5,5,7.8,7.8c2.7,3,4.1,4.6,7,4.6h4.4
		l40.1,67.2H403l38.9-67.2h4.4c2.8,0,4.3-1.6,7-4.6c2.4-2.8,5-5.4,7.8-7.8h38.1c27.1,0,50,16.5,55.6,40.2L595.3,526l0,0
		C598.6,542.5,594.5,559.4,584.2,572.5L584.2,572.5z"/>
	<path class="st0" d="M350,342.6c5.5,0,10.7-2.2,14.6-6c3.9-3.9,6-9.1,6-14.6s-2.2-10.7-6-14.6c-3.9-3.9-9.1-6-14.6-6
		s-10.7,2.2-14.6,6c-3.9,3.9-6,9.1-6,14.6s2.2,10.7,6,14.5S344.5,342.6,350,342.6L350,342.6z M350,312.7c3.8,0,7.2,2.3,8.7,5.8
		s0.6,7.5-2,10.2c-2.7,2.7-6.7,3.5-10.2,2s-5.8-4.9-5.8-8.7C340.6,316.9,344.8,312.7,350,312.7L350,312.7z"/>
	<path class="st0" d="M205.6,332.2c-9.4,0-18.5,3.8-25.2,10.4c-6.7,6.7-10.4,15.7-10.4,25.2s3.8,18.5,10.4,25.2
		c6.7,6.7,15.7,10.4,25.2,10.4c9.4,0,18.5-3.8,25.2-10.4c6.7-6.7,10.4-15.7,10.4-25.2c0-9.4-3.8-18.5-10.4-25.2
		C224.1,336,215,332.2,205.6,332.2L205.6,332.2z M205.6,392.2L205.6,392.2c-6.5,0-12.7-2.6-17.3-7.2s-7.1-10.8-7.1-17.3
		s2.6-12.7,7.1-17.3c4.6-4.6,10.8-7.1,17.3-7.1s12.7,2.6,17.3,7.1s7.1,10.8,7.1,17.3s-2.6,12.7-7.2,17.2
		C218.2,389.6,212,392.2,205.6,392.2L205.6,392.2z"/>
	<path class="st0" d="M498.8,355.3c4.8,0,9.3-1.9,12.7-5.3s5.3-7.9,5.3-12.7c0-4.8-1.9-9.3-5.3-12.7c-3.4-3.4-7.9-5.3-12.7-5.3
		c-4.8,0-9.3,1.9-12.7,5.3c-3.4,3.4-5.3,7.9-5.3,12.7s1.9,9.3,5.3,12.7C489.5,353.4,494,355.3,498.8,355.3L498.8,355.3z
		 M498.8,330.6L498.8,330.6c2.7,0,5.2,1.6,6.2,4.2c1,2.5,0.5,5.4-1.5,7.4c-1.9,1.9-4.8,2.5-7.4,1.5c-2.5-1-4.2-3.5-4.2-6.2
		C492,333.7,495.1,330.6,498.8,330.6L498.8,330.6z"/>
	<path class="st0" d="M498.8,380.2c-4.8,0-9.3,1.9-12.7,5.3c-3.4,3.4-5.3,7.9-5.3,12.7c0,4.8,1.9,9.3,5.3,12.7
		c3.4,3.4,7.9,5.3,12.7,5.3c4.8,0,9.3-1.9,12.7-5.3s5.3-7.9,5.3-12.7c0-4.8-1.9-9.3-5.3-12.7C508.1,382.2,503.6,380.3,498.8,380.2
		L498.8,380.2z M498.8,405L498.8,405c-2.7,0-5.2-1.6-6.2-4.2c-1-2.5-0.5-5.4,1.5-7.4s4.8-2.5,7.4-1.5c2.5,1,4.2,3.5,4.2,6.2
		C505.6,401.9,502.5,405,498.8,405L498.8,405z"/>
	<path class="st0" d="M529.2,349.8c-4.8,0-9.3,1.9-12.7,5.3s-5.3,7.9-5.3,12.7c0,4.8,1.9,9.3,5.3,12.7c3.4,3.4,7.9,5.3,12.7,5.3
		s9.3-1.9,12.7-5.3s5.3-7.9,5.3-12.7c0-4.8-1.9-9.3-5.3-12.7C538.6,351.7,534,349.8,529.2,349.8L529.2,349.8z M529.2,374.6
		L529.2,374.6c-2.7,0-5.2-1.6-6.2-4.2c-1-2.5-0.5-5.4,1.5-7.4c1.9-1.9,4.8-2.5,7.4-1.5c2.5,1,4.2,3.5,4.2,6.2
		C536,371.5,533,374.5,529.2,374.6L529.2,374.6z"/>
	<path class="st0" d="M486.3,367.8c0-4.8-1.9-9.3-5.3-12.7c-3.4-3.4-7.9-5.3-12.7-5.3c-4.8,0-9.3,1.9-12.7,5.3
		c-3.4,3.4-5.3,7.9-5.3,12.7c0,4.8,1.9,9.3,5.3,12.7c3.4,3.4,7.9,5.3,12.7,5.3c4.8,0,9.3-1.9,12.7-5.3
		C484.4,377.1,486.3,372.6,486.3,367.8L486.3,367.8z M468.4,374.6L468.4,374.6c-2.7,0-5.2-1.6-6.2-4.2c-1-2.5-0.5-5.4,1.5-7.4
		c1.9-1.9,4.8-2.5,7.4-1.5c2.5,1,4.2,3.5,4.2,6.2C475.1,371.5,472.1,374.5,468.4,374.6L468.4,374.6z"/>
	<path class="st0" d="M289.7,392.9c-9.4,0-18.5,3.8-25.2,10.4c-6.7,6.7-10.4,15.7-10.4,25.2c0,9.4,3.8,18.5,10.4,25.2
		c6.7,6.7,15.7,10.4,25.2,10.4s18.5-3.8,25.2-10.4c6.7-6.7,10.4-15.7,10.4-25.2c0-9.4-3.8-18.5-10.4-25.2
		C308.2,396.7,299.2,392.9,289.7,392.9L289.7,392.9z M289.7,452.9c-6.5,0-12.7-2.6-17.3-7.2c-4.6-4.6-7.2-10.8-7.2-17.3
		s2.6-12.7,7.1-17.3s10.8-7.2,17.3-7.2s12.7,2.6,17.3,7.2s7.2,10.8,7.2,17.3s-2.6,12.7-7.2,17.2
		C302.4,450.3,296.2,452.9,289.7,452.9L289.7,452.9z"/>
	<path class="st0" d="M410.3,392.9c-9.4,0-18.5,3.8-25.2,10.4c-6.7,6.7-10.4,15.7-10.4,25.2c0,9.4,3.8,18.5,10.4,25.2
		c6.7,6.7,15.7,10.4,25.2,10.4s18.5-3.8,25.2-10.4c6.7-6.7,10.4-15.7,10.4-25.2c0-9.4-3.8-18.5-10.4-25.2S419.7,392.9,410.3,392.9
		L410.3,392.9z M410.3,452.9c-6.5,0-12.7-2.6-17.3-7.2c-4.6-4.6-7.1-10.8-7.1-17.3s2.6-12.7,7.1-17.3s10.8-7.1,17.3-7.1
		s12.7,2.6,17.3,7.2s7.1,10.8,7.1,17.3s-2.6,12.7-7.2,17.3C423,450.3,416.7,452.9,410.3,452.9L410.3,452.9z"/>
	<path class="st0" d="M295.3,413h-11.2v9.9h-12v11.2h12v9.9h11.2v-9.9h12v-11.2h-12V413z"/>
	<path class="st0" d="M317.5,373.3H337v11.2h-19.5V373.3z"/>
	<path class="st0" d="M363,373.3h19.5v11.2H363V373.3z"/>
</g>
</svg>
