<?xml version="1.0" encoding="utf-8"?>
<!-- Generator: Adobe Illustrator 26.4.1, SVG Export Plug-In . SVG Version: 6.00 Build 0)  -->
<svg version="1.1" id="Calque_1" xmlns="http://www.w3.org/2000/svg" xmlns:xlink="http://www.w3.org/1999/xlink" x="0px" y="0px"
	 viewBox="0 0 700 700" style="enable-background:new 0 0 700 700;" xml:space="preserve">
<style type="text/css">
	.st0{fill:#FFFFFF;stroke:#FFFFFF;stroke-miterlimit:10;}
	.st1{fill:#FFFFFF;}
</style>
<g>
	<path class="st0" d="M528.6,349.8h-42c-5.8,0-10.5,4.7-10.5,10.5s4.7,10.5,10.5,10.5h8.6l-5.5,33.2c-0.8,5.1-5.2,8.8-10.4,8.8h-5.1
		c-2.2-6.1-6.2-11.4-11.5-15.2c-5.3-3.8-11.6-5.8-18.1-5.8h-1.1l-6.1-54.7c-1.9-17.2,2.3-34.5,11.9-48.9l19.7-29.6l0,0
		c4.6-6.9,7.1-15,7.1-23.3v-35.6c0-14.7-7.8-28.4-20.4-36l-29.3-17.6c-3.4-2.1-6.2-5-8-8.6l-8.2-16.4c-3.5-7-8.8-12.9-15.5-17
		c-6.6-4.1-14.3-6.3-22.1-6.2h-45.1c-7.8,0-15.5,2.1-22.1,6.2c-6.6,4.1-12,10-15.5,17l-8.2,16.4l0,0c-1.8,3.6-4.5,6.6-8,8.6
		l-29.3,17.6c-12.6,7.6-20.4,21.3-20.4,36v35.6c0,8.3,2.4,16.4,7.1,23.3l19.7,29.6l0,0c9.6,14.4,13.8,31.7,11.9,48.9l-6.1,54.7h-1.1
		l0,0c-6.5,0-12.8,2.1-18.1,5.8c-5.3,3.8-9.3,9.1-11.5,15.2h-5.1c-5.1,0-9.5-3.7-10.4-8.8l-5.5-33.2h8.6c5.8,0,10.5-4.7,10.5-10.5
		s-4.7-10.5-10.5-10.5h-42c-5.8,0-10.5,4.7-10.5,10.5s4.7,10.5,10.5,10.5h12.1l6.1,36.7l0,0c1.2,7.4,5,14.1,10.7,18.9
		s12.9,7.5,20.4,7.4h3.2c0,8.4,3.3,16.4,9.2,22.3s13.9,9.2,22.3,9.2h84v22.9l-96.6,19.3c-4.9,1-8.4,5.3-8.4,10.3v23
		c-9.4,3.3-16.7,10.9-19.6,20.5c-2.9,9.6-1.1,19.9,4.8,28c5.9,8,15.3,12.8,25.3,12.8s19.4-4.7,25.3-12.8c5.9-8,7.7-18.4,4.8-28
		c-2.9-9.6-10.2-17.1-19.6-20.5v-14.4l84-16.8v31.2c-9.4,3.3-16.7,10.9-19.6,20.5c-2.9,9.6-1.1,19.9,4.8,28
		c5.9,8,15.3,12.8,25.3,12.8s19.4-4.7,25.3-12.8c5.9-8,7.7-18.4,4.8-28c-2.9-9.6-10.2-17.1-19.6-20.5v-31.2l84,16.8v14.4
		c-9.4,3.3-16.7,10.9-19.6,20.5c-2.9,9.6-1.1,19.9,4.8,28c5.9,8,15.3,12.8,25.3,12.8s19.4-4.7,25.3-12.8c5.9-8,7.7-18.4,4.8-28
		c-2.9-9.6-10.2-17.1-19.6-20.5v-23c0-5-3.5-9.3-8.4-10.3l-96.6-19.3v-22.9h84c8.4,0,16.4-3.3,22.3-9.2c5.9-5.9,9.2-13.9,9.2-22.3
		h3.2c7.5,0,14.7-2.6,20.4-7.4c5.7-4.8,9.5-11.5,10.7-18.9l6.1-36.7h12.1c5.8,0,10.5-4.7,10.5-10.5S534.4,349.8,528.6,349.8
		L528.6,349.8z M245.1,580.8c-4.2,0-8.1-2.6-9.7-6.5c-1.6-3.9-0.7-8.4,2.3-11.4s7.5-3.9,11.4-2.3c3.9,1.6,6.5,5.5,6.5,9.7
		C255.6,576.1,250.9,580.8,245.1,580.8L245.1,580.8z M455.1,580.8c-4.2,0-8.1-2.6-9.7-6.5c-1.6-3.9-0.7-8.4,2.3-11.4
		s7.5-3.9,11.4-2.3c3.9,1.6,6.5,5.5,6.5,9.7C465.6,576.1,460.9,580.8,455.1,580.8L455.1,580.8z M350.1,580.8c-4.2,0-8.1-2.6-9.7-6.5
		c-1.6-3.9-0.7-8.4,2.3-11.4s7.5-3.9,11.4-2.3c3.9,1.6,6.5,5.5,6.5,9.7C360.6,576.1,355.9,580.8,350.1,580.8L350.1,580.8z
		 M431.9,276.5c-12.3,18.5-17.7,40.8-15.3,62.9l5.8,52.4h-30.3v-86.3c0-3.8,1-7.5,2.9-10.7c1.9-3.2,4.7-5.9,8-7.7l34.2-18.6
		L431.9,276.5z M255.3,181.6l29.3-17.6c6.8-4.1,12.4-10.1,16-17.2l8.2-16.4c1.7-3.5,4.4-6.4,7.7-8.5s7.1-3.1,11-3.1h45.1
		c3.9,0,7.7,1.1,11,3.1c3.3,2.1,6,5,7.7,8.5l8.2,16.4c3.6,7.1,9.1,13.1,16,17.2l29.3,17.6l0,0c6.3,3.8,10.2,10.6,10.2,18v35.2
		l-62.1,33.8c-6.6,3.6-12.2,8.9-16,15.4s-5.9,13.9-5.9,21.5v86.3h-42v-86.3c0-7.6-2-15-5.9-21.4c-3.9-6.5-9.4-11.8-16-15.4l-62-33.9
		v-35.2C245.1,192.3,249,185.4,255.3,181.6L255.3,181.6z M268.3,276.5l-5.4-8l34.2,18.6l0,0c3.3,1.8,6.1,4.5,8,7.7
		c1.9,3.2,2.9,6.9,2.9,10.7v86.3h-30.3l5.8-52.4C286.1,317.3,280.7,295,268.3,276.5L268.3,276.5z M455.1,433.8
		c0,5.8-4.7,10.5-10.5,10.5h-189c-5.8,0-10.5-4.7-10.5-10.5v-10.5c0-5.8,4.7-10.5,10.5-10.5h189c5.8,0,10.5,4.7,10.5,10.5V433.8z"/>
	<path class="st1" d="M315.5,235.6c5.9,5.9,13.9,9.3,22.3,9.2h24.6c8.4,0,16.4-3.3,22.3-9.2l8.7-8.7l0,0c5.9-5.9,9.3-13.9,9.2-22.3
		v-1.8c0-8.4-3.3-16.4-9.2-22.3c-5.9-5.9-13.9-9.2-22.3-9.2h-42c-8.4,0-16.4,3.3-22.3,9.2c-5.9,5.9-9.2,13.9-9.2,22.3v1.8
		c0,8.4,3.3,16.4,9.2,22.3L315.5,235.6z M318.6,202.8L318.6,202.8c0-5.8,4.7-10.5,10.5-10.5h42c5.8,0,10.5,4.7,10.5,10.5v1.8
		c0,2.8-1.1,5.5-3.1,7.4l-8.7,8.7c-2,2-4.6,3.1-7.4,3.1h-24.6c-2.8,0-5.5-1.1-7.4-3.1l-8.7-8.7c-2-2-3.1-4.6-3.1-7.4L318.6,202.8z"
		/>
</g>
</svg>
