<?xml version="1.0" encoding="utf-8"?>
<!-- Generator: Adobe Illustrator 26.4.1, SVG Export Plug-In . SVG Version: 6.00 Build 0)  -->
<svg version="1.1" id="Calque_1" xmlns="http://www.w3.org/2000/svg" xmlns:xlink="http://www.w3.org/1999/xlink" x="0px" y="0px"
	 viewBox="0 0 700 700" style="enable-background:new 0 0 700 700;" xml:space="preserve">
<style type="text/css">
	.st0{fill:#FFFFFF;}
</style>
<g>
	<path class="st0" d="M157.5,210H175v17.5h-17.5V210z"/>
	<path class="st0" d="M609.9,168.8l-26.2-26.2c-1.6-1.6-3.9-2.6-6.2-2.6H218.8c-3.3,0-6.3,1.9-7.8,4.8L195.8,175H140v-70
		c0-2.3-0.9-4.5-2.6-6.2s-3.9-2.6-6.2-2.6h-35v17.5h26.2V245H96.3c-4.8,0-8.8,3.9-8.8,8.8v105c0,2.3,0.9,4.5,2.6,6.2
		s3.9,2.6,6.2,2.6h26.2V455H140v-52.5h17.5v26.2c0,2.3,0.9,4.5,2.6,6.2s3.9,2.6,6.2,2.6h35c2.3,0,4.5-0.9,6.2-2.6s2.6-3.9,2.6-6.2
		v-26.2h17.5v26.2c0,2.3,0.9,4.5,2.6,6.2s3.9,2.6,6.2,2.6h52.5c2.3,0,4.5-0.9,6.2-2.6s2.6-3.9,2.6-6.2v-26.2H315v26.2
		c0,2.3,0.9,4.5,2.6,6.2s3.9,2.6,6.2,2.6h210c2.3,0,4.5-0.9,6.2-2.6s2.6-3.9,2.6-6.2v-26.2H560v26.2c0,2.3,0.9,4.5,2.6,6.2
		s3.9,2.6,6.2,2.6h35c2.3,0,4.5-0.9,6.2-2.6s2.6-3.9,2.6-6.2V175C612.5,172.7,611.6,170.5,609.9,168.8L609.9,168.8z M105,350v-87.5
		h17.5V350H105z M595,420h-17.5v-26.2c0-2.3-0.9-4.5-2.6-6.2s-3.9-2.6-6.2-2.6h-35c-4.8,0-8.8,3.9-8.8,8.8V420H332.5v-26.2
		c0-2.3-0.9-4.5-2.6-6.2s-3.9-2.6-6.2-2.6h-35c-4.8,0-8.8,3.9-8.8,8.8V420h-35v-26.2c0-2.3-0.9-4.5-2.6-6.2s-3.9-2.6-6.2-2.6h-35
		c-4.8,0-8.8,3.9-8.8,8.8V420H175v-26.2c0-2.3-0.9-4.5-2.6-6.2s-3.9-2.6-6.2-2.6H140V192.5h61.2c3.3,0,6.3-1.9,7.8-4.8l15.1-30.2
		h349.7l21.1,21.1L595,420z"/>
	<path class="st0" d="M428.8,175c-30.2,0-59.1,12-80.4,33.3S315,258.6,315,288.8s12,59.1,33.3,80.4s50.3,33.3,80.4,33.3
		s59.1-12,80.4-33.3s33.3-50.3,33.3-80.4c0-30.2-12-59.1-33.4-80.4S458.9,175,428.8,175L428.8,175z M428.8,385
		c-25.5,0-50-10.1-68.1-28.2c-18.1-18.1-28.2-42.5-28.2-68.1s10.1-50,28.2-68.1c18.1-18.1,42.5-28.2,68.1-28.2s50,10.1,68.1,28.2
		c18.1,18.1,28.2,42.5,28.2,68.1c0,25.5-10.2,50-28.2,68C478.7,374.8,454.3,385,428.8,385z"/>
	<path class="st0" d="M157.5,350H175v17.5h-17.5V350z"/>
	<path class="st0" d="M560,175h17.5v17.5H560V175z"/>
	<path class="st0" d="M560,350h17.5v17.5H560V350z"/>
	<path class="st0" d="M428.8,201.2c-23.2,0-45.5,9.2-61.9,25.6s-25.6,38.7-25.6,61.9s9.2,45.5,25.6,61.9s38.7,25.6,61.9,25.6
		s45.5-9.2,61.9-25.6s25.6-38.7,25.6-61.9c0-23.2-9.3-45.4-25.7-61.8S451.9,201.3,428.8,201.2z M428.8,358.8
		c-18.6,0-36.4-7.4-49.5-20.5c-13.1-13.1-20.5-30.9-20.5-49.5s7.4-36.4,20.5-49.5c13.1-13.1,30.9-20.5,49.5-20.5s36.4,7.4,49.5,20.5
		c13.1,13.1,20.5,30.9,20.5,49.5c0,18.6-7.4,36.4-20.5,49.5C465.1,351.3,447.3,358.7,428.8,358.8z"/>
	<path class="st0" d="M288.8,236.2h-87.5c-4.8,0-8.8,3.9-8.8,8.8v87.5c0,2.3,0.9,4.5,2.6,6.2s3.9,2.6,6.2,2.6h87.5
		c2.3,0,4.5-0.9,6.2-2.6s2.6-3.9,2.6-6.2V245c0-2.3-0.9-4.5-2.6-6.2S291.1,236.2,288.8,236.2z M280,323.8h-70v-70h70V323.8z"/>
	<path class="st0" d="M463.8,262.5c-0.3-9.2-4-17.9-10.5-24.5c-6.5-6.5-15.3-10.3-24.5-10.5c-4.8,0-8.8,3.9-8.8,8.8v34.1
		c-0.7-0.3-1.5-0.8-2.2-1.1c-9.6-3.8-20.4-3-29.3,2.2c-7.8,4.8-13.5,12.5-15.9,21.4c-2.4,8.9-1.3,18.4,3.1,26.5
		c1.2,2,3.1,3.5,5.3,4.1c2.2,0.6,4.6,0.3,6.6-0.9l29.6-17.1c0.6,8.5,4.4,16.4,10.6,22.2c6.2,5.8,14.4,9,22.9,9.1
		c4.3,0,8.5-0.8,12.5-2.3c7.7-2.8,14.2-8.1,18.5-15c2.4-4.2,1-9.5-3.2-12L449,290.3C458.2,284.1,463.7,273.6,463.8,262.5
		L463.8,262.5z M437.5,247.9c3.5,1.9,6.2,5,7.7,8.8c1.4,3.8,1.4,7.9,0,11.7c-1.4,3.8-4.1,6.9-7.7,8.8V247.9z M389,301.6
		c-0.1-3,0.7-5.9,2.1-8.6c1.5-2.6,3.6-4.8,6.2-6.3c2.4-1.4,5.2-2.2,8-2.2c2.2,0,4.3,0.4,6.3,1.2c0.9,0.4,1.9,0.8,2.7,1.3L389,301.6z
		 M457.1,318c-4.7,1.9-10,1.6-14.3-1c-2.6-1.5-4.7-3.7-6.2-6.3c-1.5-2.6-2.2-5.6-2.1-8.6l25.4,14.6v0
		C458.9,317.3,458,317.7,457.1,318L457.1,318z"/>
</g>
</svg>
