<?xml version="1.0" encoding="utf-8"?>
<!-- Generator: Adobe Illustrator 26.4.1, SVG Export Plug-In . SVG Version: 6.00 Build 0)  -->
<svg version="1.1" id="Calque_1" xmlns="http://www.w3.org/2000/svg" xmlns:xlink="http://www.w3.org/1999/xlink" x="0px" y="0px"
	 viewBox="0 0 700 700" style="enable-background:new 0 0 700 700;" xml:space="preserve">
<style type="text/css">
	.st0{fill:#FFFFFF;}
</style>
<g>
	<path class="st0" d="M586.2,218.8H393.8v-26.2c0-2.3-0.9-4.5-2.6-6.2s-3.9-2.6-6.2-2.6h-26.2V175c0-7-2.8-13.6-7.7-18.6
		s-11.6-7.7-18.6-7.7H210c-4.8,0-8.8-3.9-8.8-8.8s3.9-8.8,8.8-8.8h262.5c7,0,13.6-2.8,18.6-7.7s7.7-11.6,7.7-18.6V87.5
		c0-4.8-3.9-8.8-8.8-8.8s-8.8,3.9-8.8,8.8V105c0,2.3-0.9,4.5-2.6,6.2s-3.9,2.6-6.2,2.6H210c-9.4,0-18,5-22.7,13.1
		c-4.7,8.1-4.7,18.1,0,26.2c4.7,8.1,13.4,13.1,22.7,13.1h122.5c2.3,0,4.5,0.9,6.2,2.6s2.6,3.9,2.6,6.2v8.8H315
		c-4.8,0-8.8,3.9-8.8,8.8v26.2H113.8c-9.3,0-18.2,3.7-24.8,10.2c-6.6,6.6-10.2,15.5-10.2,24.8v192.5c0,9.3,3.7,18.2,10.2,24.8
		c6.6,6.6,15.5,10.2,24.8,10.2h472.5c9.3,0,18.2-3.7,24.8-10.2c6.6-6.6,10.2-15.5,10.2-24.8V253.8c0-9.3-3.7-18.2-10.2-24.8
		C604.4,222.4,595.5,218.8,586.2,218.8L586.2,218.8z M323.8,201.2h52.5v17.5h-52.5V201.2z M603.8,446.2c0,4.6-1.8,9.1-5.1,12.4
		s-7.7,5.1-12.4,5.1H113.8c-4.6,0-9.1-1.8-12.4-5.1s-5.1-7.7-5.1-12.4V253.8c0-4.6,1.8-9.1,5.1-12.4s7.7-5.1,12.4-5.1h472.5
		c4.6,0,9.1,1.8,12.4,5.1s5.1,7.7,5.1,12.4V446.2z"/>
	<path class="st0" d="M437.5,393.8h-175c-4.8,0-8.8,3.9-8.8,8.8v35c0,2.3,0.9,4.5,2.6,6.2s3.9,2.6,6.2,2.6h175
		c2.3,0,4.5-0.9,6.2-2.6s2.6-3.9,2.6-6.2v-35c0-2.3-0.9-4.5-2.6-6.2S439.8,393.8,437.5,393.8z M428.8,428.8H271.2v-17.5h157.5V428.8
		z"/>
	<path class="st0" d="M157.5,393.8h-35c-4.8,0-8.8,3.9-8.8,8.8v35c0,2.3,0.9,4.5,2.6,6.2s3.9,2.6,6.2,2.6h35c2.3,0,4.5-0.9,6.2-2.6
		s2.6-3.9,2.6-6.2v-35c0-2.3-0.9-4.5-2.6-6.2S159.8,393.8,157.5,393.8z M148.8,428.8h-17.5v-17.5h17.5V428.8z"/>
	<path class="st0" d="M227.5,393.8h-35c-4.8,0-8.8,3.9-8.8,8.8v35c0,2.3,0.9,4.5,2.6,6.2s3.9,2.6,6.2,2.6h35c2.3,0,4.5-0.9,6.2-2.6
		s2.6-3.9,2.6-6.2v-35c0-2.3-0.9-4.5-2.6-6.2S229.8,393.8,227.5,393.8z M218.8,428.8h-17.5v-17.5h17.5V428.8z"/>
	<path class="st0" d="M157.5,323.8c-4.8,0-8.8,3.9-8.8,8.8v35c0,2.3,0.9,4.5,2.6,6.2s3.9,2.6,6.2,2.6h35c2.3,0,4.5-0.9,6.2-2.6
		s2.6-3.9,2.6-6.2v-35c0-2.3-0.9-4.5-2.6-6.2s-3.9-2.6-6.2-2.6H157.5z M183.8,358.8h-17.5v-17.5h17.5V358.8z"/>
	<path class="st0" d="M227.5,323.8c-4.8,0-8.8,3.9-8.8,8.8v35c0,2.3,0.9,4.5,2.6,6.2s3.9,2.6,6.2,2.6h35c2.3,0,4.5-0.9,6.2-2.6
		s2.6-3.9,2.6-6.2v-35c0-2.3-0.9-4.5-2.6-6.2s-3.9-2.6-6.2-2.6H227.5z M253.8,358.8h-17.5v-17.5h17.5V358.8z"/>
	<path class="st0" d="M297.5,323.8c-4.8,0-8.8,3.9-8.8,8.8v35c0,2.3,0.9,4.5,2.6,6.2s3.9,2.6,6.2,2.6h35c2.3,0,4.5-0.9,6.2-2.6
		s2.6-3.9,2.6-6.2v-35c0-2.3-0.9-4.5-2.6-6.2s-3.9-2.6-6.2-2.6H297.5z M323.8,358.8h-17.5v-17.5h17.5V358.8z"/>
	<path class="st0" d="M367.5,323.8c-4.8,0-8.8,3.9-8.8,8.8v35c0,2.3,0.9,4.5,2.6,6.2s3.9,2.6,6.2,2.6h35c2.3,0,4.5-0.9,6.2-2.6
		s2.6-3.9,2.6-6.2v-35c0-2.3-0.9-4.5-2.6-6.2s-3.9-2.6-6.2-2.6H367.5z M393.8,358.8h-17.5v-17.5h17.5V358.8z"/>
	<path class="st0" d="M437.5,323.8c-4.8,0-8.8,3.9-8.8,8.8v35c0,2.3,0.9,4.5,2.6,6.2s3.9,2.6,6.2,2.6h35c2.3,0,4.5-0.9,6.2-2.6
		s2.6-3.9,2.6-6.2v-35c0-2.3-0.9-4.5-2.6-6.2s-3.9-2.6-6.2-2.6H437.5z M463.8,358.8h-17.5v-17.5h17.5V358.8z"/>
	<path class="st0" d="M498.8,332.5v35c0,2.3,0.9,4.5,2.6,6.2s3.9,2.6,6.2,2.6h35c2.3,0,4.5-0.9,6.2-2.6s2.6-3.9,2.6-6.2v-35
		c0-2.3-0.9-4.5-2.6-6.2s-3.9-2.6-6.2-2.6h-35C502.7,323.8,498.8,327.7,498.8,332.5z M516.2,341.2h17.5v17.5h-17.5V341.2z"/>
	<path class="st0" d="M122.5,306.2h35c2.3,0,4.5-0.9,6.2-2.6s2.6-3.9,2.6-6.2v-35c0-2.3-0.9-4.5-2.6-6.2s-3.9-2.6-6.2-2.6h-35
		c-4.8,0-8.8,3.9-8.8,8.8v35c0,2.3,0.9,4.5,2.6,6.2S120.2,306.2,122.5,306.2z M131.2,271.2h17.5v17.5h-17.5V271.2z"/>
	<path class="st0" d="M192.5,306.2h35c2.3,0,4.5-0.9,6.2-2.6s2.6-3.9,2.6-6.2v-35c0-2.3-0.9-4.5-2.6-6.2s-3.9-2.6-6.2-2.6h-35
		c-4.8,0-8.8,3.9-8.8,8.8v35c0,2.3,0.9,4.5,2.6,6.2S190.2,306.2,192.5,306.2z M201.2,271.2h17.5v17.5h-17.5V271.2z"/>
	<path class="st0" d="M262.5,306.2h35c2.3,0,4.5-0.9,6.2-2.6s2.6-3.9,2.6-6.2v-35c0-2.3-0.9-4.5-2.6-6.2s-3.9-2.6-6.2-2.6h-35
		c-4.8,0-8.8,3.9-8.8,8.8v35c0,2.3,0.9,4.5,2.6,6.2S260.2,306.2,262.5,306.2z M271.2,271.2h17.5v17.5h-17.5V271.2z"/>
	<path class="st0" d="M332.5,306.2h35c2.3,0,4.5-0.9,6.2-2.6s2.6-3.9,2.6-6.2v-35c0-2.3-0.9-4.5-2.6-6.2s-3.9-2.6-6.2-2.6h-35
		c-4.8,0-8.8,3.9-8.8,8.8v35c0,2.3,0.9,4.5,2.6,6.2S330.2,306.2,332.5,306.2z M341.2,271.2h17.5v17.5h-17.5V271.2z"/>
	<path class="st0" d="M402.5,306.2h35c2.3,0,4.5-0.9,6.2-2.6s2.6-3.9,2.6-6.2v-35c0-2.3-0.9-4.5-2.6-6.2s-3.9-2.6-6.2-2.6h-35
		c-4.8,0-8.8,3.9-8.8,8.8v35c0,2.3,0.9,4.5,2.6,6.2S400.2,306.2,402.5,306.2z M411.2,271.2h17.5v17.5h-17.5V271.2z"/>
	<path class="st0" d="M472.5,306.2h35c2.3,0,4.5-0.9,6.2-2.6s2.6-3.9,2.6-6.2v-35c0-2.3-0.9-4.5-2.6-6.2s-3.9-2.6-6.2-2.6h-35
		c-4.8,0-8.8,3.9-8.8,8.8v35c0,2.3,0.9,4.5,2.6,6.2S470.2,306.2,472.5,306.2z M481.2,271.2h17.5v17.5h-17.5V271.2z"/>
	<path class="st0" d="M577.5,253.8h-35c-4.8,0-8.8,3.9-8.8,8.8v35c0,2.3,0.9,4.5,2.6,6.2s3.9,2.6,6.2,2.6h35c2.3,0,4.5-0.9,6.2-2.6
		s2.6-3.9,2.6-6.2v-35c0-2.3-0.9-4.5-2.6-6.2S579.8,253.8,577.5,253.8z M568.8,288.8h-17.5v-17.5h17.5V288.8z"/>
	<path class="st0" d="M507.5,393.8h-35c-4.8,0-8.8,3.9-8.8,8.8v35c0,2.3,0.9,4.5,2.6,6.2s3.9,2.6,6.2,2.6h35c2.3,0,4.5-0.9,6.2-2.6
		s2.6-3.9,2.6-6.2v-35c0-2.3-0.9-4.5-2.6-6.2S509.8,393.8,507.5,393.8z M498.8,428.8h-17.5v-17.5h17.5V428.8z"/>
	<path class="st0" d="M577.5,393.8h-35c-4.8,0-8.8,3.9-8.8,8.8v35c0,2.3,0.9,4.5,2.6,6.2s3.9,2.6,6.2,2.6h35c2.3,0,4.5-0.9,6.2-2.6
		s2.6-3.9,2.6-6.2v-35c0-2.3-0.9-4.5-2.6-6.2S579.8,393.8,577.5,393.8z M568.8,428.8h-17.5v-17.5h17.5V428.8z"/>
</g>
</svg>
