<svg width="8" height="12" viewBox="0 0 8 12" fill="none" xmlns="http://www.w3.org/2000/svg">
<path d="M6.71 9.88L2.83 6L6.71 2.12C6.80258 2.02742 6.87602 1.9175 6.92613 1.79654C6.97623 1.67558 7.00202 1.54593 7.00202 1.415C7.00202 1.28407 6.97623 1.15442 6.92613 1.03345C6.87602 0.91249 6.80258 0.802579 6.71 0.709997C6.61742 0.617415 6.50751 0.543975 6.38654 0.49387C6.26558 0.443765 6.13593 0.417976 6.005 0.417976C5.87407 0.417976 5.74442 0.443765 5.62346 0.49387C5.50249 0.543975 5.39258 0.617415 5.3 0.709997L0.710001 5.3C0.617297 5.39251 0.54375 5.5024 0.493568 5.62337C0.443387 5.74435 0.417557 5.87403 0.417557 6.005C0.417557 6.13597 0.443387 6.26565 0.493568 6.38662C0.54375 6.50759 0.617297 6.61748 0.710001 6.71L5.3 11.3C5.69 11.69 6.32 11.69 6.71 11.3C7.09 10.91 7.1 10.27 6.71 9.88Z" fill="white"/>
</svg>
