<?xml version="1.0" encoding="utf-8"?>
<!-- Generator: Adobe Illustrator 26.4.1, SVG Export Plug-In . SVG Version: 6.00 Build 0)  -->
<svg version="1.1" id="Calque_2_00000044137476466832212870000017198107389808233875_"
	 xmlns="http://www.w3.org/2000/svg" xmlns:xlink="http://www.w3.org/1999/xlink" x="0px" y="0px" viewBox="0 0 199.7 131.7"
	 style="enable-background:new 0 0 199.7 131.7;" xml:space="preserve">
<style type="text/css">
	.st0{fill:#FFFFFF;}
</style>
<g id="Calque_2-2">
	<g id="Calque_1-2">
		<path class="st0" d="M130.6,131.2c-8.6,0.5-18.8-2.6-28.6-7.4c-1.5-0.7-3.9-0.6-5.4,0.1c-24.8,12.1-48.8,10.3-70.7-6.2
			C-5.6,93.9-8.8,49.1,18.5,20.4c19-20.1,50.9-26.6,76.8-13c3.1,1.6,5.7,1.5,8.8-0.1c29.7-15.1,64.9-5.7,83.8,21.5
			c21,30.5,13.2,70.3-17.8,91.5C158.9,127.8,146.5,131.4,130.6,131.2L130.6,131.2L130.6,131.2z M94.7,12.2
			C68.2-2.2,33.4,6.6,16.4,30.4c-18,25.3-13.8,61.6,10.4,82c20.6,17.4,52.2,17.5,67.3,6.2c-17.2-13.5-26.2-31.1-26.3-53
			C67.6,43.4,77.7,26.3,94.7,12.2C94.7,12.2,94.7,12.2,94.7,12.2z M105.1,119c19.7,12.4,54.7,10.9,76-15.2
			c19.3-23.7,18.4-61.3-7.9-84.1c-20.3-17.6-51-18.6-67.7-6.9c16.8,13.8,26.4,31.2,26.3,53.3C131.7,88.1,122.2,105.4,105.1,119
			C105.1,119,105.1,119,105.1,119z M116.3,98.5c5.3-5,5.5-7.2,1.2-11.5c-9.4-9.4-18.8-18.8-28.2-28.2c-4.2-4.2-8.3-8.4-12.5-12.8
			c-4.3,6.5-4.1,9.2,0.3,13.6c11.8,11.8,23.5,23.5,35.3,35.3C113.7,96.2,115.1,97.4,116.3,98.5z M123.7,84.3
			c3.3-6.6,1.7-10.9-3.2-15.5C108.9,58.3,98.1,47.1,87,36.2c-1.3-1.3-2.7-2.6-4.9-4.6c-1,4.4-5.8,6.7-1.1,11.2
			c13.1,12.7,25.9,25.7,38.9,38.6C121,82.5,122.3,83.3,123.7,84.3C123.7,84.3,123.7,84.3,123.7,84.3z M126.8,66.2
			c0.4-0.1,0.8-0.1,1.2-0.2c-1.3-4.6-1.4-10.4-4.3-13.7c-9-10.2-19-19.5-28.8-29c-0.9-0.9-3.5-0.8-4.9-0.2c-1.5,0.7-2.5,2.5-2.9,3
			C100.6,39.7,113.7,52.9,126.8,66.2L126.8,66.2z M74,63.5c-0.5,0.4-1.1,0.8-1.6,1.2c0.3,6-0.3,11.8,5.4,16.8
			c9.4,8.1,18,17.2,26.8,26c2.1,2.1,3.7,2.4,5.7,0.1c1.9-2.1,3.4-3.8,0.4-6.6c-8.9-8.5-17.5-17.3-26.1-26C81,71.2,77.6,67.3,74,63.5
			L74,63.5L74,63.5z M102,114.8C94,106.4,86.5,98.5,78.5,90c0.1,1.6-0.1,2.7,0.4,3.4c5,8.5,10.8,16.3,19.3,21.6
			C99.2,115.7,101.1,114.9,102,114.8L102,114.8L102,114.8z M96.2,16.5c8.4,8.5,16.2,16.3,23.9,24.1C117.1,29.1,103.6,15.4,96.2,16.5
			z"/>
	</g>
</g>
</svg>
