<?xml version="1.0" encoding="UTF-8"?>
<svg id="Calque_2" data-name="Calque 2" xmlns="http://www.w3.org/2000/svg" viewBox="0 0 200.35 131.92">
  <defs>
    <style>
      .cls-1 {
        fill: none;
        stroke-linecap: round;
        stroke-linejoin: round;
        stroke-width: 2px;
      }

      .cls-1, .cls-2 {
        stroke: #fff;
      }

      .cls-2 {
        fill: #fff;
        stroke-miterlimit: 10;
      }
    </style>
  </defs>
  <g id="Calque_1-2" data-name="Calque 1">
    <g>
      <path class="cls-2" d="M130.86,131.19c-8.6,.4-18.9-2.7-28.9-7.5-1.5-.7-4.1-.2-5.8,.7-28.4,14.5-64.6,5.9-83.1-19.8C-12.74,68.59,2.86,18.89,44.86,4.29,61.56-1.51,78.16-.51,94.06,7.19c4.1,2,7.4,2.1,11.6,0,29.5-14.5,64.5-4.7,82.6,22.3,23.1,34.3,10.2,76.9-25.5,95.4-8.8,4.4-20.2,6.7-31.9,6.3ZM95.06,12.59C67.16-2.01,32.76,6.99,15.46,32.89-1.04,57.49,3.16,92.69,28.06,113.09c20.5,16.8,51.9,16.6,66.3,5.5-17-13.6-26.2-31-26.2-52.9-.2-22,9.9-39.1,26.9-53.1Zm10.4,106.3c17.2,11.7,52.5,11.6,74.5-13.4,19.4-22.1,20.1-59.5-3.5-82.6C155.76,2.69,123.36,1.29,105.76,13.09c16.6,13.9,26.4,31.1,26.3,53.1-.1,21.9-9.4,39.3-26.6,52.7Zm11.2-20.2c5.3-5,5.5-7.2,1.2-11.4-9.4-9.4-18.8-18.7-28.2-28.1-4.2-4.2-8.3-8.4-12.5-12.7-4.2,6.5-4,9.1,.4,13.5,11.8,11.7,23.5,23.4,35.3,35.2,1.1,1.2,2.5,2.3,3.8,3.5ZM82.46,31.79c-.9,4.5-5.9,6.7-1.3,11.2,13.2,12.8,26.1,25.9,39.2,38.8,1.1,1,2.4,1.7,4,2.8,1.8-10,1.7-9.9-4.7-16.3-9.4-9.3-18.8-18.7-28.2-28-2.7-2.6-5.4-5.1-9-8.5Zm44.5,34.7c.5-.1,.9-.1,1.4-.2-1.5-4.7-1.7-10.5-4.7-13.9-8.9-10.1-18.9-19.1-28.3-28.7-1.9-1.9-3.5-2.2-5.4-.1-1.1,1.2-2.2,2.4-2.9,3.1,13.5,13.5,26.7,26.6,39.9,39.8Zm-53.2-2.3c-.4,.2-.8,.4-1.2,.6,1.1,5.1-1.1,10.6,3.9,15.2,9.7,9,19.2,18.3,28.5,27.7,2.2,2.2,3.8,2.1,5.7-.1,1.7-1.9,3.4-3.5,.6-6.2-10.7-10.4-21.2-21-31.7-31.5-1.9-2-3.8-3.8-5.8-5.7Zm5,26c.1,1.5-.1,2.6,.4,3.4,4.9,8.5,10.8,16.3,19.2,21.6,1,.6,2.9-.1,4.1-.2-8-8.5-15.6-16.4-23.7-24.8ZM99.16,15.69c-.7,.7-1.4,1.3-2.1,2,7.7,7.8,15.5,15.5,23.2,23.3,.4-.4,.9-.8,1.3-1.3-5.4-9.9-12.2-18.6-22.4-24Z"/>
      <path class="cls-1" d="M97.56,12.69c-4.8-6.2-12.3-7-19-8.3C53.16-.51,32.36,8.09,16.26,27.69c-7.5,9.1-11.3,19.9-12.8,31.8-2,15.7,2.3,29.6,10.8,42.3,8.6,13,21.1,21.4,35.9,25.2,15.7,4.1,31.4,2.7,45.9-5.8"/>
      <path class="cls-1" d="M103.56,121.29c13.6,7.5,27.8,9.2,43,6,23.7-5,39.4-19.1,47.3-41.5,8.7-24.6,.6-53.4-22.3-70.3-11.9-8.7-25.1-13.2-39.5-12.6-10.4,.5-21.3,1.4-29.5,9.7"/>
      <path class="cls-1" d="M127.96,70.99c3.5-4,1-8.6,1.4-13,.2-1.8-.9-3.6-1.4-5.5"/>
      <path class="cls-1" d="M124.26,41.09c-3-9.2-9.2-16.1-16.2-22.4-1.2-1.1-2.3-2.3-3.5-3.5"/>
      <path class="cls-1" d="M90.56,19.69c-4.2,5.3-8.4,10.5-12.4,16-1,1.4-1.1,3.6-1.6,5.4"/>
      <path class="cls-1" d="M84.06,29.59c11.7,11.5,23.3,22.9,35,34.4,1.9,1.9,4,3.7,6,5.5"/>
      <path class="cls-1" d="M128.76,74.99c-.9,3.8-1.8,7.6-2.7,11.5"/>
      <path class="cls-1" d="M118.46,100.89c-2.8,3.5-5.7,7-8.5,10.5"/>
      <path class="cls-1" d="M92.56,99.39c-3.3-3.3-6.5-6.8-10-9.9-1.5-1.4-3.6-2.1-5.4-3"/>
      <path class="cls-1" d="M76.06,43.59c-4.1,3.6-4.5,8.5-4.5,13.5"/>
      <path class="cls-1" d="M70.56,62.99c.5,5.5,1,11,1.5,16.4"/>
      <path class="cls-1" d="M75.56,90.39c3.4,9.1,8.9,16.7,16.5,23,2,1.6,3.7,3.6,5.5,5.5"/>
    </g>
  </g>
</svg>