<svg width="50" height="50" viewBox="0 0 50 50" fill="none" xmlns="http://www.w3.org/2000/svg">
<path d="M40.625 25C40.625 27.8819 40.0778 30.5903 38.9834 33.125C37.8903 35.6597 36.4063 37.8646 34.5313 39.7396C32.6563 41.6146 30.4514 43.0986 27.9167 44.1917C25.382 45.2861 22.6737 45.8333 19.7917 45.8333C18.6806 45.8333 17.5174 45.7292 16.3021 45.5208C15.0868 45.3125 13.9237 45.0174 12.8125 44.6354C12.3959 44.4618 12.066 44.1931 11.823 43.8292C11.5799 43.4639 11.4584 43.0556 11.4584 42.6042C11.4584 42.2917 11.5195 41.9965 11.6417 41.7188C11.7625 41.441 11.9445 41.2153 12.1875 41.0417C14.6528 38.9931 16.5362 36.5708 17.8375 33.775C19.1403 30.9806 19.7917 28.0556 19.7917 25C19.7917 21.9444 19.1403 19.0188 17.8375 16.2229C16.5362 13.4285 14.6528 11.0069 12.1875 8.95833C11.9445 8.78472 11.7625 8.55903 11.6417 8.28125C11.5195 8.00347 11.4584 7.70833 11.4584 7.39583C11.4584 6.94445 11.5799 6.53611 11.823 6.17083C12.066 5.80695 12.3959 5.5382 12.8125 5.36458C13.9237 4.98264 15.0868 4.6875 16.3021 4.47917C17.5174 4.27083 18.6806 4.16667 19.7917 4.16667C22.6737 4.16667 25.382 4.7132 27.9167 5.80625C30.4514 6.9007 32.6563 8.38542 34.5313 10.2604C36.4063 12.1354 37.8903 14.3403 38.9834 16.875C40.0778 19.4097 40.625 22.1181 40.625 25Z" fill="#CBF7B0"/>
</svg>
