<svg width="27" height="28" viewBox="0 0 27 28" fill="none" xmlns="http://www.w3.org/2000/svg">
<path d="M13.3333 0.666687C15.1014 0.666687 16.7971 1.36907 18.0474 2.61931C19.2976 3.86955 20 5.56524 20 7.33335C20 9.10146 19.2976 10.7972 18.0474 12.0474C16.7971 13.2976 15.1014 14 13.3333 14C11.5652 14 9.86953 13.2976 8.61929 12.0474C7.36905 10.7972 6.66667 9.10146 6.66667 7.33335C6.66667 5.56524 7.36905 3.86955 8.61929 2.61931C9.86953 1.36907 11.5652 0.666687 13.3333 0.666687ZM13.3333 17.3334C20.7 17.3334 26.6667 20.3167 26.6667 24V27.3334H0V24C0 20.3167 5.96667 17.3334 13.3333 17.3334Z" fill="#CBF7B0"/>
</svg>
