<svg width="50" height="50" viewBox="0 0 50 50" fill="none" xmlns="http://www.w3.org/2000/svg">
<path d="M10.423 9.328C10.423 6.336 12.9876 3.72 16.3001 4.034C27.086 5.0598 37.0789 9.93202 44.3042 17.688C46.5334 20.074 45.8397 23.616 43.3063 25.378L42.4251 25.992L41.6688 24.912L41.6522 24.888C35.0063 16.076 24.1938 10.34 11.9855 10.34H10.423V9.328ZM39.1063 26.628L39.8938 27.754C37.1516 29.6624 34.4107 31.5724 31.6709 33.484L31.2501 33.784V37.988C31.2501 38.5184 31.0306 39.0271 30.6399 39.4022C30.2492 39.7773 29.7193 39.988 29.1667 39.988C28.6142 39.988 28.0843 39.7773 27.6936 39.4022C27.3029 39.0271 27.0834 38.5184 27.0834 37.988V37.868C27.0501 37.6163 26.9183 37.3861 26.7148 37.2242C26.5113 37.0623 26.2513 36.9806 25.9874 36.9959C25.7236 37.0112 25.4756 37.1221 25.2938 37.3064C25.1121 37.4906 25.01 37.7342 25.0084 37.988V40.99C25.0085 41.5031 24.8031 41.9967 24.4347 42.3685C24.0664 42.7404 23.5632 42.9621 23.0294 42.9877C22.4955 43.0134 21.9718 42.8411 21.5666 42.5065C21.1613 42.1719 20.9056 41.7006 20.8522 41.19L17.8522 43.27C14.7501 45.418 10.4147 43.29 10.4167 39.618L10.423 13.338H11.9855C23.1397 13.338 33.0188 18.572 39.1063 26.628ZM18.7584 21.988C19.3109 21.988 19.8409 21.7773 20.2316 21.4022C20.6223 21.0271 20.8417 20.5184 20.8417 19.988C20.8417 19.4576 20.6223 18.9489 20.2316 18.5738C19.8409 18.1987 19.3109 17.988 18.7584 17.988C18.2059 17.988 17.676 18.1987 17.2853 18.5738C16.8946 18.9489 16.6751 19.4576 16.6751 19.988C16.6751 20.5184 16.8946 21.0271 17.2853 21.4022C17.676 21.7773 18.2059 21.988 18.7584 21.988ZM27.0917 27.984C27.6443 27.984 28.1742 27.7733 28.5649 27.3982C28.9556 27.0231 29.1751 26.5144 29.1751 25.984C29.1751 25.4536 28.9556 24.9449 28.5649 24.5698C28.1742 24.1947 27.6443 23.984 27.0917 23.984C26.5392 23.984 26.0093 24.1947 25.6186 24.5698C25.2279 24.9449 25.0084 25.4536 25.0084 25.984C25.0084 26.5144 25.2279 27.0231 25.6186 27.3982C26.0093 27.7733 26.5392 27.984 27.0917 27.984ZM18.7584 33.98C19.3109 33.98 19.8409 33.7693 20.2316 33.3942C20.6223 33.0191 20.8417 32.5104 20.8417 31.98C20.8417 31.4496 20.6223 30.9409 20.2316 30.5658C19.8409 30.1907 19.3109 29.98 18.7584 29.98C18.2059 29.98 17.676 30.1907 17.2853 30.5658C16.8946 30.9409 16.6751 31.4496 16.6751 31.98C16.6751 32.5104 16.8946 33.0191 17.2853 33.3942C17.676 33.7693 18.2059 33.98 18.7584 33.98Z" fill="#CBF7B0"/>
</svg>
