<?xml version="1.0" encoding="utf-8"?>
<!-- Generator: Adobe Illustrator 26.4.1, SVG Export Plug-In . SVG Version: 6.00 Build 0)  -->
<svg version="1.1" id="Calque_1" xmlns="http://www.w3.org/2000/svg" xmlns:xlink="http://www.w3.org/1999/xlink" x="0px" y="0px"
	 viewBox="0 0 700 700" style="enable-background:new 0 0 700 700;" xml:space="preserve">
<style type="text/css">
	.st0{fill:#FFFFFF;}
</style>
<g>
	<path class="st0" d="M428.8,456H273.5c-15.1,0-27.3-12.3-27.3-27.3V273.4c0-15.1,12.3-27.3,27.3-27.3h155.3
		c15.1,0,27.3,12.3,27.3,27.3v155.3C456.1,443.8,443.8,456,428.8,456z M273.5,267.9c-3,0-5.5,2.5-5.5,5.5v155.3c0,3,2.5,5.5,5.5,5.5
		h155.3c3,0,5.5-2.5,5.5-5.5V273.4c0-3-2.5-5.5-5.5-5.5H273.5z"/>
	<path class="st0" d="M503.1,530.4h-304c-15.1,0-27.3-12.3-27.3-27.3V199c0-15.1,12.3-27.3,27.3-27.3h304
		c15.1,0,27.3,12.3,27.3,27.3v304.1C530.5,518.1,518.2,530.4,503.1,530.4L503.1,530.4z M199.1,193.5c-3,0-5.5,2.5-5.5,5.5v304.1
		c0,3,2.5,5.5,5.5,5.5h304c3,0,5.5-2.5,5.5-5.5V199c0-3-2.5-5.5-5.5-5.5H199.1z"/>
	<path class="st0" d="M464.9,191.3c-6,0-10.9-4.9-10.9-10.9v-43.7c0-6,4.9-10.9,10.9-10.9s10.9,4.9,10.9,10.9v43.8
		C475.8,186.5,470.9,191.3,464.9,191.3z"/>
	<path class="st0" d="M432,191.3c-6,0-10.9-4.9-10.9-10.9v-43.7c0-6,4.9-10.9,10.9-10.9s10.9,4.9,10.9,10.9v43.8
		C443,186.5,438.1,191.3,432,191.3z"/>
	<path class="st0" d="M399.2,191.3c-6,0-10.9-4.9-10.9-10.9v-43.7c0-6,4.9-10.9,10.9-10.9s10.9,4.9,10.9,10.9v43.8
		C410.2,186.5,405.3,191.3,399.2,191.3z"/>
	<path class="st0" d="M366.4,191.3c-6,0-10.9-4.9-10.9-10.9v-43.7c0-6,4.9-10.9,10.9-10.9s10.9,4.9,10.9,10.9v43.8
		C377.3,186.5,372.4,191.3,366.4,191.3z"/>
	<path class="st0" d="M333.6,191.3c-6,0-10.9-4.9-10.9-10.9v-43.7c0-6,4.9-10.9,10.9-10.9s10.9,4.9,10.9,10.9v43.8
		C344.5,186.5,339.6,191.3,333.6,191.3z"/>
	<path class="st0" d="M300.8,191.3c-6,0-10.9-4.9-10.9-10.9v-43.7c0-6,4.9-10.9,10.9-10.9s10.9,4.9,10.9,10.9v43.8
		C311.7,186.5,306.8,191.3,300.8,191.3z"/>
	<path class="st0" d="M268,191.3c-6,0-10.9-4.9-10.9-10.9v-43.7c0-6,4.9-10.9,10.9-10.9s10.9,4.9,10.9,10.9v43.8
		C278.9,186.5,274,191.3,268,191.3z"/>
	<path class="st0" d="M235.2,191.3c-6,0-10.9-4.9-10.9-10.9v-43.7c0-6,4.9-10.9,10.9-10.9s10.9,4.8,10.9,10.9v43.8
		C246.1,186.5,241.2,191.3,235.2,191.3z"/>
	<path class="st0" d="M464.9,574.2c-6,0-10.9-4.9-10.9-10.9v-43.8c0-6,4.9-10.9,10.9-10.9s10.9,4.9,10.9,10.9v43.8
		C475.8,569.3,470.9,574.2,464.9,574.2z"/>
	<path class="st0" d="M432,574.2c-6,0-10.9-4.9-10.9-10.9v-43.8c0-6,4.9-10.9,10.9-10.9s10.9,4.9,10.9,10.9v43.8
		C443,569.3,438.1,574.2,432,574.2z"/>
	<path class="st0" d="M399.2,574.2c-6,0-10.9-4.9-10.9-10.9v-43.8c0-6,4.9-10.9,10.9-10.9s10.9,4.9,10.9,10.9v43.8
		C410.2,569.3,405.3,574.2,399.2,574.2z"/>
	<path class="st0" d="M366.4,574.2c-6,0-10.9-4.9-10.9-10.9v-43.8c0-6,4.9-10.9,10.9-10.9s10.9,4.9,10.9,10.9v43.8
		C377.3,569.3,372.4,574.2,366.4,574.2z"/>
	<path class="st0" d="M333.6,574.2c-6,0-10.9-4.9-10.9-10.9v-43.8c0-6,4.9-10.9,10.9-10.9s10.9,4.9,10.9,10.9v43.8
		C344.5,569.3,339.6,574.2,333.6,574.2z"/>
	<path class="st0" d="M300.8,574.2c-6,0-10.9-4.9-10.9-10.9v-43.8c0-6,4.9-10.9,10.9-10.9s10.9,4.9,10.9,10.9v43.8
		C311.7,569.3,306.8,574.2,300.8,574.2z"/>
	<path class="st0" d="M268,574.2c-6,0-10.9-4.9-10.9-10.9v-43.8c0-6,4.9-10.9,10.9-10.9s10.9,4.9,10.9,10.9v43.8
		C278.9,569.3,274,574.2,268,574.2z"/>
	<path class="st0" d="M235.2,574.2c-6,0-10.9-4.9-10.9-10.9v-43.8c0-6,4.9-10.9,10.9-10.9s10.9,4.9,10.9,10.9v43.8
		C246.1,569.3,241.2,574.2,235.2,574.2z"/>
	<path class="st0" d="M563.3,475.7h-43.8c-6,0-10.9-4.9-10.9-10.9s4.9-10.9,10.9-10.9h43.8c6,0,10.9,4.9,10.9,10.9
		S569.3,475.7,563.3,475.7z"/>
	<path class="st0" d="M563.3,442.9h-43.8c-6,0-10.9-4.9-10.9-10.9s4.9-10.9,10.9-10.9h43.8c6,0,10.9,4.9,10.9,10.9
		S569.3,442.9,563.3,442.9z"/>
	<path class="st0" d="M563.3,410.1h-43.8c-6,0-10.9-4.9-10.9-10.9s4.9-10.9,10.9-10.9h43.8c6,0,10.9,4.9,10.9,10.9
		S569.3,410.1,563.3,410.1z"/>
	<path class="st0" d="M563.3,377.3h-43.8c-6,0-10.9-4.9-10.9-10.9s4.9-10.9,10.9-10.9h43.8c6,0,10.9,4.9,10.9,10.9
		S569.3,377.3,563.3,377.3z"/>
	<path class="st0" d="M563.3,344.5h-43.8c-6,0-10.9-4.9-10.9-10.9s4.9-10.9,10.9-10.9h43.8c6,0,10.9,4.9,10.9,10.9
		S569.3,344.5,563.3,344.5z"/>
	<path class="st0" d="M563.3,311.7h-43.8c-6,0-10.9-4.9-10.9-10.9s4.9-10.9,10.9-10.9h43.8c6,0,10.9,4.9,10.9,10.9
		S569.3,311.7,563.3,311.7z"/>
	<path class="st0" d="M563.3,278.9h-43.8c-6,0-10.9-4.9-10.9-10.9s4.9-10.9,10.9-10.9h43.8c6,0,10.9,4.9,10.9,10.9
		S569.3,278.9,563.3,278.9z"/>
	<path class="st0" d="M563.3,246h-43.8c-6,0-10.9-4.9-10.9-10.9s4.9-10.9,10.9-10.9h43.8c6,0,10.9,4.9,10.9,10.9
		S569.3,246,563.3,246z"/>
	<path class="st0" d="M180.5,475.7h-43.8c-6,0-10.9-4.9-10.9-10.9s4.9-10.9,10.9-10.9h43.8c6,0,10.9,4.9,10.9,10.9
		S186.5,475.7,180.5,475.7z"/>
	<path class="st0" d="M180.5,442.9h-43.8c-6,0-10.9-4.9-10.9-10.9s4.9-10.9,10.9-10.9h43.8c6,0,10.9,4.9,10.9,10.9
		S186.5,442.9,180.5,442.9z"/>
	<path class="st0" d="M180.5,410.1h-43.8c-6,0-10.9-4.9-10.9-10.9s4.9-10.9,10.9-10.9h43.8c6,0,10.9,4.9,10.9,10.9
		S186.5,410.1,180.5,410.1z"/>
	<path class="st0" d="M180.5,377.3h-43.8c-6,0-10.9-4.9-10.9-10.9s4.9-10.9,10.9-10.9h43.8c6,0,10.9,4.9,10.9,10.9
		S186.5,377.3,180.5,377.3z"/>
	<path class="st0" d="M180.5,344.5h-43.8c-6,0-10.9-4.9-10.9-10.9s4.9-10.9,10.9-10.9h43.8c6,0,10.9,4.9,10.9,10.9
		S186.5,344.5,180.5,344.5z"/>
	<path class="st0" d="M180.5,311.7h-43.8c-6,0-10.9-4.9-10.9-10.9s4.9-10.9,10.9-10.9h43.8c6,0,10.9,4.9,10.9,10.9
		S186.5,311.7,180.5,311.7z"/>
	<path class="st0" d="M180.5,278.9h-43.8c-6,0-10.9-4.9-10.9-10.9s4.9-10.9,10.9-10.9h43.8c6,0,10.9,4.9,10.9,10.9
		S186.5,278.9,180.5,278.9z"/>
	<path class="st0" d="M180.5,246h-43.8c-6,0-10.9-4.9-10.9-10.9s4.9-10.9,10.9-10.9h43.8c6,0,10.9,4.9,10.9,10.9
		S186.5,246,180.5,246z"/>
	<path class="st0" d="M350.1,414.9c-35.7,0-64.8-29.1-64.8-64.8s29.1-64.8,64.8-64.8s64.8,29.1,64.8,64.8S385.9,414.9,350.1,414.9z
		 M350.1,307.1c-23.7,0-43,19.3-43,43s19.3,43,43,43s43-19.3,43-43S373.8,307.1,350.1,307.1z"/>
	<path class="st0" d="M213.3,213.2h21.9v21.9h-21.9V213.2z"/>
	<path class="st0" d="M464.9,213.2h21.9v21.9h-21.9V213.2z"/>
	<path class="st0" d="M213.3,464.8h21.9v21.9h-21.9V464.8z"/>
	<path class="st0" d="M464.9,464.8h21.9v21.9h-21.9V464.8z"/>
</g>
</svg>
