<?xml version="1.0" encoding="utf-8"?>
<!-- Generator: Adobe Illustrator 26.4.1, SVG Export Plug-In . SVG Version: 6.00 Build 0)  -->
<svg version="1.1" id="Calque_1" xmlns="http://www.w3.org/2000/svg" xmlns:xlink="http://www.w3.org/1999/xlink" x="0px" y="0px"
	 viewBox="0 0 700 700" style="enable-background:new 0 0 700 700;" xml:space="preserve">
<style type="text/css">
	.st0{fill:#FFFFFF;}
</style>
<g>
	<path class="st0" d="M427.7,395.9H272.4c-15.1,0-27.3-12.3-27.3-27.3V213.3c0-15.1,12.3-27.3,27.3-27.3h155.3
		c15.1,0,27.3,12.3,27.3,27.3v155.3C455,383.7,442.7,395.9,427.7,395.9z M272.4,207.8c-3,0-5.5,2.5-5.5,5.5v155.3
		c0,3,2.5,5.5,5.5,5.5h155.3c3,0,5.5-2.5,5.5-5.5V213.3c0-3-2.5-5.5-5.5-5.5L272.4,207.8z"/>
	<path class="st0" d="M502,470.3H198c-15.1,0-27.3-12.3-27.3-27.3V138.9c0-15.1,12.3-27.3,27.3-27.3H502c15.1,0,27.3,12.3,27.3,27.3
		V443C529.4,458,517.1,470.3,502,470.3L502,470.3z M198,133.4c-3,0-5.5,2.5-5.5,5.5V443c0,3,2.5,5.5,5.5,5.5H502
		c3,0,5.5-2.5,5.5-5.5V138.9c0-3-2.5-5.5-5.5-5.5L198,133.4z"/>
	<path class="st0" d="M463.8,131.2c-6,0-10.9-4.9-10.9-10.9V76.6c0-6,4.9-10.9,10.9-10.9s10.9,4.9,10.9,10.9v43.8
		C474.7,126.4,469.8,131.2,463.8,131.2z"/>
	<path class="st0" d="M430.9,131.2c-6,0-10.9-4.9-10.9-10.9V76.6c0-6,4.9-10.9,10.9-10.9s10.9,4.9,10.9,10.9v43.8
		C441.9,126.4,437,131.2,430.9,131.2z"/>
	<path class="st0" d="M398.1,131.2c-6,0-10.9-4.9-10.9-10.9V76.6c0-6,4.9-10.9,10.9-10.9s10.9,4.9,10.9,10.9v43.8
		C409.1,126.4,404.2,131.2,398.1,131.2z"/>
	<path class="st0" d="M365.3,131.2c-6,0-10.9-4.9-10.9-10.9V76.6c0-6,4.9-10.9,10.9-10.9s10.9,4.9,10.9,10.9v43.8
		C376.2,126.4,371.3,131.2,365.3,131.2z"/>
	<path class="st0" d="M332.5,131.2c-6,0-10.9-4.9-10.9-10.9V76.6c0-6,4.9-10.9,10.9-10.9s10.9,4.9,10.9,10.9v43.8
		C343.4,126.4,338.5,131.2,332.5,131.2z"/>
	<path class="st0" d="M299.7,131.2c-6,0-10.9-4.9-10.9-10.9V76.6c0-6,4.9-10.9,10.9-10.9s10.9,4.9,10.9,10.9v43.8
		C310.6,126.4,305.7,131.2,299.7,131.2z"/>
	<path class="st0" d="M266.9,131.2c-6,0-10.9-4.9-10.9-10.9V76.6c0-6,4.9-10.9,10.9-10.9s10.9,4.9,10.9,10.9v43.8
		C277.8,126.4,272.9,131.2,266.9,131.2z"/>
	<path class="st0" d="M234.1,131.2c-6,0-10.9-4.9-10.9-10.9V76.6c0-6,4.9-10.9,10.9-10.9S245,70.5,245,76.6v43.8
		C245,126.4,240.1,131.2,234.1,131.2z"/>
	<path class="st0" d="M463.8,514.1c-6,0-10.9-4.9-10.9-10.9v-43.8c0-6,4.9-10.9,10.9-10.9s10.9,4.9,10.9,10.9v43.8
		C474.7,509.2,469.8,514.1,463.8,514.1z"/>
	<path class="st0" d="M430.9,514.1c-6,0-10.9-4.9-10.9-10.9v-43.8c0-6,4.9-10.9,10.9-10.9s10.9,4.9,10.9,10.9v43.8
		C441.9,509.2,437,514.1,430.9,514.1z"/>
	<path class="st0" d="M398.1,514.1c-6,0-10.9-4.9-10.9-10.9v-43.8c0-6,4.9-10.9,10.9-10.9s10.9,4.9,10.9,10.9v43.8
		C409.1,509.2,404.2,514.1,398.1,514.1z"/>
	<path class="st0" d="M365.3,514.1c-6,0-10.9-4.9-10.9-10.9v-43.8c0-6,4.9-10.9,10.9-10.9s10.9,4.9,10.9,10.9v43.8
		C376.2,509.2,371.3,514.1,365.3,514.1z"/>
	<path class="st0" d="M332.5,514.1c-6,0-10.9-4.9-10.9-10.9v-43.8c0-6,4.9-10.9,10.9-10.9s10.9,4.9,10.9,10.9v43.8
		C343.4,509.2,338.5,514.1,332.5,514.1z"/>
	<path class="st0" d="M299.7,514.1c-6,0-10.9-4.9-10.9-10.9v-43.8c0-6,4.9-10.9,10.9-10.9s10.9,4.9,10.9,10.9v43.8
		C310.6,509.2,305.7,514.1,299.7,514.1z"/>
	<path class="st0" d="M266.9,514.1c-6,0-10.9-4.9-10.9-10.9v-43.8c0-6,4.9-10.9,10.9-10.9s10.9,4.9,10.9,10.9v43.8
		C277.8,509.2,272.9,514.1,266.9,514.1z"/>
	<path class="st0" d="M234.1,514.1c-6,0-10.9-4.9-10.9-10.9v-43.8c0-6,4.9-10.9,10.9-10.9s10.9,4.9,10.9,10.9v43.8
		C245,509.2,240.1,514.1,234.1,514.1z"/>
	<path class="st0" d="M562.2,415.6h-43.8c-6,0-10.9-4.9-10.9-10.9s4.9-10.9,10.9-10.9h43.8c6,0,10.9,4.9,10.9,10.9
		S568.2,415.6,562.2,415.6z"/>
	<path class="st0" d="M562.2,382.8h-43.8c-6,0-10.9-4.9-10.9-10.9s4.9-10.9,10.9-10.9h43.8c6,0,10.9,4.9,10.9,10.9
		S568.2,382.8,562.2,382.8z"/>
	<path class="st0" d="M562.2,350h-43.8c-6,0-10.9-4.9-10.9-10.9s4.9-10.9,10.9-10.9h43.8c6,0,10.9,4.9,10.9,10.9
		S568.2,350,562.2,350z"/>
	<path class="st0" d="M562.2,317.2h-43.8c-6,0-10.9-4.9-10.9-10.9s4.9-10.9,10.9-10.9h43.8c6,0,10.9,4.9,10.9,10.9
		S568.2,317.2,562.2,317.2z"/>
	<path class="st0" d="M562.2,284.4h-43.8c-6,0-10.9-4.9-10.9-10.9s4.9-10.9,10.9-10.9h43.8c6,0,10.9,4.9,10.9,10.9
		S568.2,284.4,562.2,284.4z"/>
	<path class="st0" d="M562.2,251.6h-43.8c-6,0-10.9-4.9-10.9-10.9s4.9-10.9,10.9-10.9h43.8c6,0,10.9,4.9,10.9,10.9
		S568.2,251.6,562.2,251.6z"/>
	<path class="st0" d="M562.2,218.8h-43.8c-6,0-10.9-4.9-10.9-10.9s4.9-10.9,10.9-10.9h43.8c6,0,10.9,4.9,10.9,10.9
		S568.2,218.8,562.2,218.8z"/>
	<path class="st0" d="M562.2,185.9h-43.8c-6,0-10.9-4.9-10.9-10.9s4.9-10.9,10.9-10.9h43.8c6,0,10.9,4.9,10.9,10.9
		S568.2,185.9,562.2,185.9z"/>
	<path class="st0" d="M179.4,415.6h-43.8c-6,0-10.9-4.9-10.9-10.9s4.9-10.9,10.9-10.9h43.8c6,0,10.9,4.9,10.9,10.9
		S185.4,415.6,179.4,415.6z"/>
	<path class="st0" d="M179.4,382.8h-43.8c-6,0-10.9-4.9-10.9-10.9s4.9-10.9,10.9-10.9h43.8c6,0,10.9,4.9,10.9,10.9
		S185.4,382.8,179.4,382.8z"/>
	<path class="st0" d="M179.4,350h-43.8c-6,0-10.9-4.9-10.9-10.9s4.9-10.9,10.9-10.9h43.8c6,0,10.9,4.9,10.9,10.9
		S185.4,350,179.4,350z"/>
	<path class="st0" d="M179.4,317.2h-43.8c-6,0-10.9-4.9-10.9-10.9s4.9-10.9,10.9-10.9h43.8c6,0,10.9,4.9,10.9,10.9
		S185.4,317.2,179.4,317.2z"/>
	<path class="st0" d="M179.4,284.4h-43.8c-6,0-10.9-4.9-10.9-10.9s4.9-10.9,10.9-10.9h43.8c6,0,10.9,4.9,10.9,10.9
		S185.4,284.4,179.4,284.4z"/>
	<path class="st0" d="M179.4,251.6h-43.8c-6,0-10.9-4.9-10.9-10.9s4.9-10.9,10.9-10.9h43.8c6,0,10.9,4.9,10.9,10.9
		S185.4,251.6,179.4,251.6z"/>
	<path class="st0" d="M179.4,218.8h-43.8c-6,0-10.9-4.9-10.9-10.9s4.9-10.9,10.9-10.9h43.8c6,0,10.9,4.9,10.9,10.9
		S185.4,218.8,179.4,218.8z"/>
	<path class="st0" d="M179.4,185.9h-43.8c-6,0-10.9-4.9-10.9-10.9s4.9-10.9,10.9-10.9h43.8c6,0,10.9,4.9,10.9,10.9
		S185.4,185.9,179.4,185.9z"/>
	<path class="st0" d="M349,354.8c-35.7,0-64.8-29.1-64.8-64.8s29.1-64.8,64.8-64.8s64.8,29.1,64.8,64.8S384.8,354.8,349,354.8z
		 M349,247c-23.7,0-43,19.3-43,43c0,23.7,19.3,43,43,43c23.7,0,43-19.3,43-43C392,266.3,372.7,247,349,247z"/>
	<path class="st0" d="M212.2,153.1h21.9V175h-21.9V153.1z"/>
	<path class="st0" d="M463.8,153.1h21.9V175h-21.9V153.1z"/>
	<path class="st0" d="M212.2,404.7h21.9v21.9h-21.9V404.7z"/>
	<path class="st0" d="M463.8,404.7h21.9v21.9h-21.9V404.7z"/>
</g>
</svg>
