<?xml version="1.0" encoding="utf-8"?>
<!-- Generator: Adobe Illustrator 26.4.1, SVG Export Plug-In . SVG Version: 6.00 Build 0)  -->
<svg version="1.1" id="Calque_1" xmlns="http://www.w3.org/2000/svg" xmlns:xlink="http://www.w3.org/1999/xlink" x="0px" y="0px"
	 viewBox="0 0 700 700" style="enable-background:new 0 0 700 700;" xml:space="preserve">
<style type="text/css">
	.st0{fill:#FFFFFF;}
</style>
<g>
	<path class="st0" d="M603.8,175c2.3,0,4.5-0.9,6.2-2.6s2.6-3.9,2.6-6.2v-35c0-2.3-0.9-4.5-2.6-6.2s-3.9-2.6-6.2-2.6H96.2
		c-4.8,0-8.8,3.9-8.8,8.8v35c0,2.3,0.9,4.5,2.6,6.2s3.9,2.6,6.2,2.6c4.8,0,8.8,3.9,8.8,8.8s-3.9,8.8-8.8,8.8s-8.8,3.9-8.8,8.8v61.2
		c0,2.3,0.9,4.5,2.6,6.2s3.9,2.6,6.2,2.6h341.2c2.3,0,4.5-0.9,6.2-2.6s2.6-3.9,2.6-6.2v-8.8c0-4.8,3.9-8.8,8.8-8.8s8.8,3.9,8.8,8.8
		v8.8c0,2.3,0.9,4.5,2.6,6.2s3.9,2.6,6.2,2.6h131.2c2.3,0,4.5-0.9,6.2-2.6s2.6-3.9,2.6-6.2v-61.2c0-2.3-0.9-4.5-2.6-6.2
		s-3.9-2.6-6.2-2.6c-4.8,0-8.8-3.9-8.8-8.8S598.9,175,603.8,175z M428.8,253.8H105V245h325.4C429.3,247.8,428.8,250.8,428.8,253.8
		L428.8,253.8z M481.2,253.8c0-3-0.6-5.9-1.6-8.8H595v8.8H481.2z M595,159c-6.9,2.4-12.4,7.6-15.3,14.3c-2.9,6.7-2.9,14.3,0,20.9
		c2.9,6.7,8.5,11.9,15.3,14.3v19H105v-19c6.9-2.4,12.4-7.6,15.3-14.3c2.9-6.7,2.9-14.3,0-20.9c-2.9-6.7-8.5-11.9-15.3-14.3v-19h490
		V159z M148.8,210h52.5c2.3,0,4.5-0.9,6.2-2.6s2.6-3.9,2.6-6.2v-35c0-2.3-0.9-4.5-2.6-6.2s-3.9-2.6-6.2-2.6h-52.5
		c-4.8,0-8.8,3.9-8.8,8.8v35c0,2.3,0.9,4.5,2.6,6.2S146.4,210,148.8,210z M157.5,175h35v17.5h-35V175z M236.2,210h52.5
		c2.3,0,4.5-0.9,6.2-2.6s2.6-3.9,2.6-6.2v-35c0-2.3-0.9-4.5-2.6-6.2s-3.9-2.6-6.2-2.6h-52.5c-4.8,0-8.8,3.9-8.8,8.8v35
		c0,2.3,0.9,4.5,2.6,6.2S233.9,210,236.2,210z M245,175h35v17.5h-35V175z M498.8,210h52.5c2.3,0,4.5-0.9,6.2-2.6s2.6-3.9,2.6-6.2
		v-35c0-2.3-0.9-4.5-2.6-6.2s-3.9-2.6-6.2-2.6h-52.5c-4.8,0-8.8,3.9-8.8,8.8v35c0,2.3,0.9,4.5,2.6,6.2S496.4,210,498.8,210z
		 M507.5,175h35v17.5h-35V175z M411.2,210h52.5c2.3,0,4.5-0.9,6.2-2.6s2.6-3.9,2.6-6.2v-35c0-2.3-0.9-4.5-2.6-6.2s-3.9-2.6-6.2-2.6
		h-52.5c-4.8,0-8.8,3.9-8.8,8.8v35c0,2.3,0.9,4.5,2.6,6.2S408.9,210,411.2,210z M420,175h35v17.5h-35V175z M323.8,210h52.5
		c2.3,0,4.5-0.9,6.2-2.6s2.6-3.9,2.6-6.2v-35c0-2.3-0.9-4.5-2.6-6.2s-3.9-2.6-6.2-2.6h-52.5c-4.8,0-8.8,3.9-8.8,8.8v35
		c0,2.3,0.9,4.5,2.6,6.2S321.4,210,323.8,210z M332.5,175h35v17.5h-35V175z M603.8,288.8H96.2c-4.8,0-8.8,3.9-8.8,8.8v35
		c0,2.3,0.9,4.5,2.6,6.2s3.9,2.6,6.2,2.6c4.8,0,8.8,3.9,8.8,8.8s-3.9,8.8-8.8,8.8s-8.8,3.9-8.8,8.8v61.2c0,2.3,0.9,4.5,2.6,6.2
		s3.9,2.6,6.2,2.6h131.2c2.3,0,4.5-0.9,6.2-2.6s2.6-3.9,2.6-6.2V420c0-4.8,3.9-8.8,8.8-8.8s8.8,3.9,8.8,8.8v8.8
		c0,2.3,0.9,4.5,2.6,6.2s3.9,2.6,6.2,2.6h341.2c2.3,0,4.5-0.9,6.2-2.6s2.6-3.9,2.6-6.2v-61.2c0-2.3-0.9-4.5-2.6-6.2
		s-3.9-2.6-6.2-2.6c-4.8,0-8.8-3.9-8.8-8.8s3.9-8.8,8.8-8.8c2.3,0,4.5-0.9,6.2-2.6s2.6-3.9,2.6-6.2v-35c0-2.3-0.9-4.5-2.6-6.2
		S606.1,288.8,603.8,288.8z M218.8,420H105v-8.8h115.4C219.3,414.1,218.8,417,218.8,420L218.8,420z M271.2,420c0-3-0.6-5.9-1.6-8.8
		H595v8.8H271.2z M595,325.2c-6.9,2.4-12.4,7.6-15.3,14.3c-2.9,6.7-2.9,14.3,0,20.9c2.9,6.7,8.5,11.9,15.3,14.3v19H105v-19
		c6.9-2.4,12.4-7.6,15.3-14.3c2.9-6.7,2.9-14.3,0-20.9c-2.9-6.7-8.5-11.9-15.3-14.3v-19h490V325.2z M148.8,376.2h52.5
		c2.3,0,4.5-0.9,6.2-2.6s2.6-3.9,2.6-6.2v-35c0-2.3-0.9-4.5-2.6-6.2s-3.9-2.6-6.2-2.6h-52.5c-4.8,0-8.8,3.9-8.8,8.8v35
		c0,2.3,0.9,4.5,2.6,6.2S146.4,376.2,148.8,376.2z M157.5,341.2h35v17.5h-35V341.2z M236.2,376.2h52.5c2.3,0,4.5-0.9,6.2-2.6
		s2.6-3.9,2.6-6.2v-35c0-2.3-0.9-4.5-2.6-6.2s-3.9-2.6-6.2-2.6h-52.5c-4.8,0-8.8,3.9-8.8,8.8v35c0,2.3,0.9,4.5,2.6,6.2
		S233.9,376.2,236.2,376.2z M245,341.2h35v17.5h-35V341.2z M498.8,376.2h52.5c2.3,0,4.5-0.9,6.2-2.6s2.6-3.9,2.6-6.2v-35
		c0-2.3-0.9-4.5-2.6-6.2s-3.9-2.6-6.2-2.6h-52.5c-4.8,0-8.8,3.9-8.8,8.8v35c0,2.3,0.9,4.5,2.6,6.2S496.4,376.2,498.8,376.2z
		 M507.5,341.2h35v17.5h-35V341.2z M411.2,376.2h52.5c2.3,0,4.5-0.9,6.2-2.6s2.6-3.9,2.6-6.2v-35c0-2.3-0.9-4.5-2.6-6.2
		s-3.9-2.6-6.2-2.6h-52.5c-4.8,0-8.8,3.9-8.8,8.8v35c0,2.3,0.9,4.5,2.6,6.2S408.9,376.2,411.2,376.2z M420,341.2h35v17.5h-35V341.2z
		 M323.8,376.2h52.5c2.3,0,4.5-0.9,6.2-2.6s2.6-3.9,2.6-6.2v-35c0-2.3-0.9-4.5-2.6-6.2s-3.9-2.6-6.2-2.6h-52.5
		c-4.8,0-8.8,3.9-8.8,8.8v35c0,2.3,0.9,4.5,2.6,6.2S321.4,376.2,323.8,376.2z M332.5,341.2h35v17.5h-35V341.2z"/>
</g>
</svg>
