<?xml version="1.0" encoding="utf-8"?>
<!-- Generator: Adobe Illustrator 26.4.1, SVG Export Plug-In . SVG Version: 6.00 Build 0)  -->
<svg version="1.1" id="Calque_1" xmlns="http://www.w3.org/2000/svg" xmlns:xlink="http://www.w3.org/1999/xlink" x="0px" y="0px"
	 viewBox="0 0 700 700" style="enable-background:new 0 0 700 700;" xml:space="preserve">
<style type="text/css">
	.st0{fill:#FFFFFF;}
</style>
<g>
	<path class="st0" d="M603.8,244.9c2.3,0,4.5-0.9,6.2-2.6s2.6-3.9,2.6-6.2v-35c0-2.3-0.9-4.5-2.6-6.2s-3.9-2.6-6.2-2.6H96.2
		c-4.8,0-8.8,3.9-8.8,8.8v35c0,2.3,0.9,4.5,2.6,6.2s3.9,2.6,6.2,2.6c4.8,0,8.8,3.9,8.8,8.8c0,4.9-3.9,8.8-8.8,8.8
		c-4.9,0-8.8,3.9-8.8,8.8v61.2c0,2.3,0.9,4.5,2.6,6.2s3.9,2.6,6.2,2.6h341.2c2.3,0,4.5-0.9,6.2-2.6s2.6-3.9,2.6-6.2v-8.8
		c0-4.8,3.9-8.8,8.8-8.8s8.8,3.9,8.8,8.8v8.8c0,2.3,0.9,4.5,2.6,6.2s3.9,2.6,6.2,2.6h131.2c2.3,0,4.5-0.9,6.2-2.6s2.6-3.9,2.6-6.2
		v-61.2c0-2.3-0.9-4.5-2.6-6.2c-1.7-1.7-3.9-2.6-6.2-2.6c-4.8,0-8.8-3.9-8.8-8.8C595,248.8,598.9,244.9,603.8,244.9z M428.8,323.7
		H105v-8.8h325.4C429.3,317.7,428.8,320.7,428.8,323.7L428.8,323.7z M481.2,323.7c0-3-0.6-5.9-1.6-8.8H595v8.8H481.2z M595,228.9
		c-6.9,2.4-12.4,7.6-15.3,14.3c-2.9,6.7-2.9,14.3,0,20.9c2.9,6.7,8.5,11.9,15.3,14.3v19H105v-19c6.9-2.4,12.4-7.6,15.3-14.3
		c2.9-6.7,2.9-14.3,0-20.9c-2.9-6.7-8.5-11.9-15.3-14.3v-19h490V228.9z M148.8,279.9h52.5c2.3,0,4.5-0.9,6.2-2.6s2.6-3.9,2.6-6.2
		v-35c0-2.3-0.9-4.5-2.6-6.2s-3.9-2.6-6.2-2.6h-52.5c-4.8,0-8.8,3.9-8.8,8.8v35c0,2.3,0.9,4.5,2.6,6.2
		C144.3,279,146.4,279.9,148.8,279.9z M157.5,244.9h35v17.5h-35V244.9z M236.2,279.9h52.5c2.3,0,4.5-0.9,6.2-2.6s2.6-3.9,2.6-6.2
		v-35c0-2.3-0.9-4.5-2.6-6.2s-3.9-2.6-6.2-2.6h-52.5c-4.8,0-8.8,3.9-8.8,8.8v35c0,2.3,0.9,4.5,2.6,6.2
		C231.7,279,233.9,279.9,236.2,279.9z M245,244.9h35v17.5h-35V244.9z M498.8,279.9h52.5c2.3,0,4.5-0.9,6.2-2.6s2.6-3.9,2.6-6.2v-35
		c0-2.3-0.9-4.5-2.6-6.2s-3.9-2.6-6.2-2.6h-52.5c-4.8,0-8.8,3.9-8.8,8.8v35c0,2.3,0.9,4.5,2.6,6.2
		C494.3,279,496.4,279.9,498.8,279.9z M507.5,244.9h35v17.5h-35V244.9z M411.2,279.9h52.5c2.3,0,4.5-0.9,6.2-2.6s2.6-3.9,2.6-6.2
		v-35c0-2.3-0.9-4.5-2.6-6.2s-3.9-2.6-6.2-2.6h-52.5c-4.8,0-8.8,3.9-8.8,8.8v35c0,2.3,0.9,4.5,2.6,6.2
		C406.7,279,408.9,279.9,411.2,279.9z M420,244.9h35v17.5h-35V244.9z M323.8,279.9h52.5c2.3,0,4.5-0.9,6.2-2.6s2.6-3.9,2.6-6.2v-35
		c0-2.3-0.9-4.5-2.6-6.2s-3.9-2.6-6.2-2.6h-52.5c-4.8,0-8.8,3.9-8.8,8.8v35c0,2.3,0.9,4.5,2.6,6.2
		C319.3,279,321.4,279.9,323.8,279.9z M332.5,244.9h35v17.5h-35V244.9z M603.8,358.7H96.2c-4.8,0-8.8,3.9-8.8,8.8v35
		c0,2.3,0.9,4.5,2.6,6.2s3.9,2.6,6.2,2.6c4.8,0,8.8,3.9,8.8,8.8s-3.9,8.8-8.8,8.8c-4.9,0-8.8,3.9-8.8,8.8v61.2
		c0,2.3,0.9,4.5,2.6,6.2s3.9,2.6,6.2,2.6h131.2c2.3,0,4.5-0.9,6.2-2.6s2.6-3.9,2.6-6.2v-9c0-4.8,3.9-8.8,8.8-8.8s8.8,3.9,8.8,8.8
		v8.8c0,2.3,0.9,4.5,2.6,6.2c1.7,1.7,3.9,2.6,6.2,2.6h341.2c2.3,0,4.5-0.9,6.2-2.6s2.6-3.9,2.6-6.2v-61.2c0-2.3-0.9-4.5-2.6-6.2
		s-3.9-2.6-6.2-2.6c-4.8,0-8.8-3.9-8.8-8.8s3.9-8.8,8.8-8.8c2.3,0,4.5-0.9,6.2-2.6s2.6-3.9,2.6-6.2v-35c0-2.3-0.9-4.5-2.6-6.2
		S606.1,358.7,603.8,358.7z M218.8,489.9H105v-8.8h115.4C219.3,484,218.8,486.9,218.8,489.9L218.8,489.9z M271.2,489.9
		c0-3-0.6-5.9-1.6-8.8H595v8.8H271.2z M595,395.1c-6.9,2.4-12.4,7.6-15.3,14.3c-2.9,6.7-2.9,14.3,0,20.9c2.9,6.7,8.5,11.9,15.3,14.3
		v19H105v-19c6.9-2.4,12.4-7.6,15.3-14.3c2.9-6.7,2.9-14.3,0-20.9c-2.9-6.7-8.5-11.9-15.3-14.3v-19h490V395.1z M148.8,446.1h52.5
		c2.3,0,4.5-0.9,6.2-2.6s2.6-3.9,2.6-6.2v-35c0-2.3-0.9-4.5-2.6-6.2s-3.9-2.6-6.2-2.6h-52.5c-4.8,0-8.8,3.9-8.8,8.8v35
		c0,2.3,0.9,4.5,2.6,6.2S146.4,446.1,148.8,446.1z M157.5,411.1h35v17.5h-35V411.1z M236.2,446.1h52.5c2.3,0,4.5-0.9,6.2-2.6
		s2.6-3.9,2.6-6.2v-35c0-2.3-0.9-4.5-2.6-6.2s-3.9-2.6-6.2-2.6h-52.5c-4.8,0-8.8,3.9-8.8,8.8v35c0,2.3,0.9,4.5,2.6,6.2
		S233.9,446.1,236.2,446.1z M245,411.1h35v17.5h-35V411.1z M498.8,446.1h52.5c2.3,0,4.5-0.9,6.2-2.6s2.6-3.9,2.6-6.2v-35
		c0-2.3-0.9-4.5-2.6-6.2s-3.9-2.6-6.2-2.6h-52.5c-4.8,0-8.8,3.9-8.8,8.8v35c0,2.3,0.9,4.5,2.6,6.2S496.4,446.1,498.8,446.1z
		 M507.5,411.1h35v17.5h-35V411.1z M411.2,446.1h52.5c2.3,0,4.5-0.9,6.2-2.6s2.6-3.9,2.6-6.2v-35c0-2.3-0.9-4.5-2.6-6.2
		s-3.9-2.6-6.2-2.6h-52.5c-4.8,0-8.8,3.9-8.8,8.8v35c0,2.3,0.9,4.5,2.6,6.2S408.9,446.1,411.2,446.1z M420,411.1h35v17.5h-35V411.1z
		 M323.8,446.1h52.5c2.3,0,4.5-0.9,6.2-2.6s2.6-3.9,2.6-6.2v-35c0-2.3-0.9-4.5-2.6-6.2s-3.9-2.6-6.2-2.6h-52.5
		c-4.8,0-8.8,3.9-8.8,8.8v35c0,2.3,0.9,4.5,2.6,6.2S321.4,446.1,323.8,446.1z M332.5,411.1h35v17.5h-35V411.1z"/>
</g>
</svg>
