<svg width="8" height="12" viewBox="0 0 8 12" fill="none" xmlns="http://www.w3.org/2000/svg">
<path d="M1.29 9.88L5.17 6L1.29 2.12C1.19742 2.02742 1.12398 1.91751 1.07387 1.79654C1.02377 1.67558 0.997978 1.54593 0.997978 1.415C0.997978 1.28407 1.02377 1.15442 1.07387 1.03346C1.12398 0.912494 1.19742 0.802583 1.29 0.710001C1.38258 0.617419 1.49249 0.543979 1.61346 0.493874C1.73442 0.443769 1.86407 0.41798 1.995 0.41798C2.12593 0.41798 2.25558 0.443769 2.37654 0.493874C2.49751 0.543979 2.60742 0.617419 2.7 0.710001L7.29 5.3C7.68 5.69 7.68 6.32 7.29 6.71L2.7 11.3C2.60749 11.3927 2.4976 11.4663 2.37662 11.5164C2.25565 11.5666 2.12597 11.5924 1.995 11.5924C1.86403 11.5924 1.73435 11.5666 1.61337 11.5164C1.4924 11.4663 1.38251 11.3927 1.29 11.3C0.909999 10.91 0.899999 10.27 1.29 9.88Z" fill="white"/>
</svg>
