<?xml version="1.0" encoding="utf-8"?>
<!-- Generator: Adobe Illustrator 26.4.1, SVG Export Plug-In . SVG Version: 6.00 Build 0)  -->
<svg version="1.1" id="Calque_1" xmlns="http://www.w3.org/2000/svg" xmlns:xlink="http://www.w3.org/1999/xlink" x="0px" y="0px"
	 viewBox="0 0 700 700" style="enable-background:new 0 0 700 700;" xml:space="preserve">
<style type="text/css">
	.st0{fill:#FFFFFF;}
</style>
<g>
	<path class="st0" d="M113.8,148.4c-5.5,0.5-10.2,5.7-10.1,11.2v257.6c0,5.9,5.3,11.2,11.2,11.2h184.8v39.2H266
		c-3.5,0-7,1.7-9.1,4.6l-44.8,61.6c-2.5,3.3-2.8,8.1-1,11.7c1.9,3.7,5.9,6.1,10.1,6.1h257.6c4.1,0,8.2-2.4,10.1-6.1s1.5-8.4-1-11.7
		l-44.8-61.6c-1.9-2.6-4.9-4.3-8.1-4.5c-11.5,0-23.1,0-34.7,0v-39.2h184.8c5.9,0,11.2-5.3,11.2-11.2V316.4
		c0.1-5.9-5.3-11.4-11.2-11.4s-11.3,5.4-11.2,11.4V406H126V170.8h448v100.8c-0.1,5.9,5.3,11.4,11.2,11.4s11.3-5.4,11.2-11.4v-112
		c0-5.9-5.3-11.2-11.2-11.2L113.8,148.4L113.8,148.4z M322,428.4h56v56h-56V428.4z M271.6,490h28v5.6c0,5.9,5.3,11.2,11.2,11.2h78.4
		c5.9,0,11.2-5.3,11.2-11.2V490h28l28.5,39.2H243.1L271.6,490z"/>
</g>
</svg>
