<svg width="40" height="70" viewBox="0 0 40 70" fill="none" xmlns="http://www.w3.org/2000/svg">
<g clip-path="url(#clip0_34_62)">
<path fill-rule="evenodd" clip-rule="evenodd" d="M21.6667 3.33331C24.254 3.33322 26.7406 4.33592 28.6042 6.13076C30.4677 7.92559 31.563 10.3728 31.66 12.9583L31.6667 13.3333V26.6666C31.6668 29.2539 30.6641 31.7406 28.8693 33.6041C27.0744 35.4676 24.6272 36.563 22.0417 36.66L21.6667 36.6666H18.3334C15.7461 36.6667 13.2594 35.664 11.3959 33.8692C9.5324 32.0744 8.43706 29.6271 8.34004 27.0416L8.33337 26.6666V13.3333C8.33328 10.746 9.33598 8.25938 11.1308 6.39586C12.9256 4.53234 15.3729 3.437 17.9584 3.33998L18.3334 3.33331H21.6667ZM20 9.99998C19.558 9.99998 19.1341 10.1756 18.8215 10.4881C18.509 10.8007 18.3334 11.2246 18.3334 11.6666V18.3333C18.3334 18.7753 18.509 19.1993 18.8215 19.5118C19.1341 19.8244 19.558 20 20 20C20.4421 20 20.866 19.8244 21.1786 19.5118C21.4911 19.1993 21.6667 18.7753 21.6667 18.3333V11.6666C21.6667 11.2246 21.4911 10.8007 21.1786 10.4881C20.866 10.1756 20.4421 9.99998 20 9.99998Z" fill="white"/>
</g>
<path d="M19.125 57.875L15.875 54.625C15.4791 54.2292 15.3908 53.7762 15.61 53.2662C15.8283 52.7554 16.2187 52.5 16.7812 52.5H23.2187C23.7812 52.5 24.1716 52.7554 24.39 53.2662C24.6091 53.7762 24.5208 54.2292 24.125 54.625L20.875 57.875C20.75 58 20.6145 58.0937 20.4687 58.1562C20.3229 58.2187 20.1666 58.25 20 58.25C19.8333 58.25 19.677 58.2187 19.5312 58.1562C19.3854 58.0937 19.25 58 19.125 57.875Z" fill="white"/>
<defs>
<clipPath id="clip0_34_62">
<rect width="40" height="40" fill="white"/>
</clipPath>
</defs>
</svg>
