<svg width="41" height="25" viewBox="0 0 41 25" fill="none" xmlns="http://www.w3.org/2000/svg">
<path d="M20.5 0C22.0858 0 23.6066 0.629946 24.7279 1.75126C25.8492 2.87257 26.4792 4.39339 26.4792 5.97917C26.4792 7.56494 25.8492 9.08576 24.7279 10.2071C23.6066 11.3284 22.0858 11.9583 20.5 11.9583C18.9142 11.9583 17.3934 11.3284 16.2721 10.2071C15.1508 9.08576 14.5208 7.56494 14.5208 5.97917C14.5208 4.39339 15.1508 2.87257 16.2721 1.75126C17.3934 0.629946 18.9142 0 20.5 0ZM8.54167 4.27083C9.49833 4.27083 10.3867 4.52708 11.1554 4.98833C10.8992 7.43125 11.6167 9.85708 13.0858 11.7533C12.2317 13.3933 10.5233 14.5208 8.54167 14.5208C7.18243 14.5208 5.87887 13.9809 4.91774 13.0198C3.95662 12.0586 3.41667 10.7551 3.41667 9.39583C3.41667 8.0366 3.95662 6.73303 4.91774 5.77191C5.87887 4.81079 7.18243 4.27083 8.54167 4.27083ZM32.4583 4.27083C33.8176 4.27083 35.1211 4.81079 36.0823 5.77191C37.0434 6.73303 37.5833 8.0366 37.5833 9.39583C37.5833 10.7551 37.0434 12.0586 36.0823 13.0198C35.1211 13.9809 33.8176 14.5208 32.4583 14.5208C30.4767 14.5208 28.7683 13.3933 27.9142 11.7533C29.4036 9.83047 30.095 7.40767 29.8446 4.98833C30.6133 4.52708 31.5017 4.27083 32.4583 4.27083ZM9.39583 21.7812C9.39583 18.245 14.3671 15.375 20.5 15.375C26.6329 15.375 31.6042 18.245 31.6042 21.7812V24.7708H9.39583V21.7812ZM0 24.7708V22.2083C0 19.8337 3.22875 17.835 7.60208 17.2542C6.59417 18.4158 5.97917 20.0217 5.97917 21.7812V24.7708H0ZM41 24.7708H35.0208V21.7812C35.0208 20.0217 34.4058 18.4158 33.3979 17.2542C37.7712 17.835 41 19.8337 41 22.2083V24.7708Z" fill="#CBF7B0"/>
</svg>
