<svg width="35" height="26" viewBox="0 0 35 26" fill="none" xmlns="http://www.w3.org/2000/svg">
<path d="M23.9167 22.2084V25.6251H0V22.2084C0 22.2084 0 15.3751 11.9583 15.3751C23.9167 15.3751 23.9167 22.2084 23.9167 22.2084ZM17.9375 5.97926C17.9375 4.79669 17.5868 3.64068 16.9298 2.65741C16.2728 1.67414 15.339 0.907776 14.2465 0.455227C13.1539 0.00267809 11.9517 -0.115729 10.7919 0.114978C9.63201 0.345686 8.56663 0.915146 7.73042 1.75135C6.89422 2.58755 6.32476 3.65293 6.09406 4.81278C5.86335 5.97262 5.98176 7.17483 6.4343 8.26738C6.88685 9.35993 7.65322 10.2938 8.63649 10.9508C9.61976 11.6078 10.7758 11.9584 11.9583 11.9584C13.5441 11.9584 15.0649 11.3285 16.1862 10.2072C17.3076 9.08585 17.9375 7.56503 17.9375 5.97926ZM23.8142 15.3751C24.8644 16.1878 25.7237 17.2208 26.3317 18.4014C26.9397 19.582 27.2816 20.8815 27.3333 22.2084V25.6251H34.1667V22.2084C34.1667 22.2084 34.1667 16.0072 23.8142 15.3751ZM22.2083 8.98225e-05C21.0325 -0.00645773 19.8825 0.345097 18.9112 1.00801C19.949 2.45793 20.5069 4.19625 20.5069 5.97926C20.5069 7.76227 19.949 9.50058 18.9112 10.9505C19.8825 11.6134 21.0325 11.965 22.2083 11.9584C23.7941 11.9584 25.3149 11.3285 26.4362 10.2072C27.5576 9.08585 28.1875 7.56503 28.1875 5.97926C28.1875 4.39348 27.5576 2.87266 26.4362 1.75135C25.3149 0.630036 23.7941 8.98225e-05 22.2083 8.98225e-05Z" fill="#CBF7B0"/>
</svg>
