<?xml version="1.0" encoding="utf-8"?>
<!-- Generator: Adobe Illustrator 26.4.1, SVG Export Plug-In . SVG Version: 6.00 Build 0)  -->
<svg version="1.1" id="Calque_1" xmlns="http://www.w3.org/2000/svg" xmlns:xlink="http://www.w3.org/1999/xlink" x="0px" y="0px"
	 viewBox="0 0 700 700" style="enable-background:new 0 0 700 700;" xml:space="preserve">
<style type="text/css">
	.st0{fill:#FFFFFF;}
</style>
<g>
	<path class="st0" d="M350,449.9c-40.4,0-80-12-113.6-34.5c-33.6-22.5-59.7-54.5-75-91.9s-19.2-78.5-11.1-118.2
		c8.1-39.6,27.9-75.9,56.7-104.3c1.7-1.5,3.8-2.4,6.1-2.4c2.3,0.1,4.4,1.1,5.9,2.8l1.1,1.2v0c2.9,2.7,6.7,4.4,10.7,4.6
		c4,0.2,7.9-1,11.1-3.4c31.1-23.7,69.2-36.5,108.3-36.1c39.1,0.3,77,13.7,107.7,37.9c3.3,2.5,7.4,3.7,11.6,3.4
		c4.2-0.3,8.1-2.1,11-5.1l1-1c1.3-1.8,3.2-3,5.4-3.4c2.6-0.4,5.3,0.4,7.2,2.3c28.6,28.5,48.1,64.8,56,104.3
		c7.9,39.5,3.9,80.6-11.5,117.8c-15.4,37.3-41.6,69.1-75.1,91.5C429.8,438,390.3,449.9,350,449.9L350,449.9z M213.4,118.2
		c-32.7,34.6-50.9,80.4-50.7,128c0,40.8,13.3,80.5,37.9,113.1c24.6,32.6,59.2,56.2,98.4,67.3c39.3,11.1,81.1,9.1,119.1-5.7
		c38-14.8,70.2-41.7,91.5-76.4c21.4-34.8,30.8-75.6,26.9-116.2c-3.9-40.6-21-78.8-48.7-108.9c-5.9,4.2-12.9,6.4-20.1,6.3
		c-7.2-0.1-14.2-2.6-19.9-6.9c-27.8-22-62.1-34.1-97.5-34.5c-35.4-0.3-70,11.2-98.1,32.7c-5.5,4.3-12.2,6.7-19.1,6.9
		C226,124,219.1,122.1,213.4,118.2L213.4,118.2z"/>
	<path class="st0" d="M382.9,503.7h-65.9c-4.5,0-8.2-3.7-8.2-8.2v-57.1c0-2.4,1-4.8,2.9-6.4s4.3-2.3,6.8-1.9
		c21.1,3.6,42.6,3.6,63.7,0c2.4-0.4,4.9,0.3,6.8,1.9c1.9,1.6,2.9,3.9,2.9,6.4v57.1c0,2.3-0.9,4.5-2.6,6.1
		C387.5,503.1,385.2,503.9,382.9,503.7L382.9,503.7z M324.6,487.2l50.1,0v-39.3c-16.6,2.1-33.4,2.1-50.1,0V487.2z"/>
	<path class="st0" d="M480,543.5h-260c-4.5,0-8.2-3.7-8.2-8.2c0-26.5,25.5-48.1,56.9-48.1h162.6c31.4,0,57,21.6,57,48.1
		c0,2.2-0.9,4.3-2.4,5.8C484.3,542.7,482.2,543.5,480,543.5L480,543.5z M229.6,527.1h240.8c-3.4-7.4-8.9-13.6-15.9-17.8
		c-7-4.2-15.1-6.1-23.2-5.6H268.7c-8.1-0.5-16.2,1.5-23.2,5.6C238.6,513.5,233,519.7,229.6,527.1L229.6,527.1z"/>
	<path class="st0" d="M468.2,125.6c-7.4,0-14.5-2.4-20.3-6.9c-27.8-22-62.1-34.1-97.6-34.5s-70,11.2-98.2,32.7
		c-6.2,4.9-13.9,7.5-21.7,7.2c-7.9-0.3-15.4-3.4-21.2-8.7c-7.5-6.8-11.6-16.5-11.1-26.6c0.4-10,5.2-19.2,13.2-25.2
		c40.1-30.5,89.1-46.9,139.4-46.8C401,16.7,450,33.3,490,63.9c7.7,5.9,12.4,14.9,13,24.6c0.6,9.7-3,19.2-9.9,26l-1.1,1.2
		C485.7,122,477.1,125.6,468.2,125.6L468.2,125.6z M347.9,67.9c39.8,0,78.5,13.3,109.9,37.7c3.3,2.5,7.4,3.7,11.6,3.4
		c4.2-0.3,8.1-2.1,11-5.1l1.3-1.1c3.5-3.5,5.4-8.4,5-13.4c-0.3-4.9-2.7-9.5-6.6-12.5C443.1,48.6,397.7,33.1,351,32.9
		c-46.7-0.1-92.2,15.1-129.5,43.3c-4.1,3-6.5,7.7-6.7,12.8c-0.3,5.2,1.8,10.3,5.7,13.8c2.9,2.7,6.7,4.3,10.7,4.5
		c4,0.2,7.9-1,11.1-3.4c30.2-23.5,67.5-36.2,105.7-36.2L347.9,67.9z"/>
	<path class="st0" d="M350,388c-37.6,0-73.7-15-100.3-41.6c-26.6-26.6-41.6-62.7-41.6-100.4c0-37.6,15-73.7,41.6-100.3
		c26.6-26.6,62.7-41.5,100.4-41.5c37.6,0,73.7,15,100.3,41.6c26.6,26.6,41.5,62.7,41.5,100.4c0,37.6-15,73.7-41.6,100.3
		C423.7,373,387.6,387.9,350,388L350,388z M350,120.7c-33.3,0-65.2,13.2-88.7,36.7c-23.5,23.5-36.7,55.4-36.7,88.7
		s13.2,65.2,36.7,88.7c23.5,23.5,55.4,36.7,88.7,36.7s65.2-13.2,88.7-36.7c23.5-23.5,36.7-55.4,36.7-88.7
		c0-33.3-13.2-65.1-36.8-88.7C415.1,134,383.3,120.7,350,120.7L350,120.7z"/>
	<path class="st0" d="M350,317.7c-23.1,0.2-45-10.7-58.6-29.4c-13.6-18.7-17.4-42.8-10-64.8c7.3-21.9,24.8-39,47-45.8
		c4.4-1.4,9.1,0.9,10.5,5.3c1.4,4.4-0.9,9.1-5.3,10.5c-18.4,5.8-32.4,20.8-37,39.5s0.9,38.5,14.5,52.1
		c13.6,13.6,33.4,19.2,52.1,14.6c18.7-4.6,33.7-18.6,39.5-37c1.4-4.3,6-6.8,10.3-5.4c4.3,1.4,6.8,6,5.4,10.3
		c-4.6,14.5-13.7,27.2-26,36.2C380.1,313,365.2,317.8,350,317.7L350,317.7z"/>
	<path class="st0" d="M391.2,243.6c-10.2,0-20-4.1-27.3-11.3c-7.2-7.2-11.3-17-11.3-27.3s4.1-20,11.3-27.3
		c7.2-7.2,17-11.3,27.3-11.3s20,4.1,27.3,11.3c7.2,7.2,11.3,17,11.3,27.3s-4.1,20-11.3,27.3C411.2,239.5,401.4,243.6,391.2,243.6z
		 M391.2,183.1c-5.9,0-11.5,2.3-15.6,6.5c-4.1,4.1-6.5,9.8-6.5,15.6s2.3,11.5,6.5,15.6c4.2,4.1,9.8,6.4,15.6,6.4
		c5.9,0,11.5-2.4,15.6-6.5c4.1-4.2,6.4-9.8,6.4-15.6c0-5.8-2.4-11.4-6.5-15.6C402.6,185.4,397,183.1,391.2,183.1L391.2,183.1z"/>
	<path class="st0" d="M350,449.9c-40.4,0-80-12-113.6-34.5c-33.6-22.5-59.7-54.5-75-91.9s-19.2-78.5-11.1-118.2
		c8.1-39.6,27.9-75.9,56.7-104.3c1.7-1.5,3.8-2.4,6.1-2.4c2.3,0.1,4.4,1.1,5.9,2.8l1.1,1.2v0c2.9,2.7,6.7,4.4,10.7,4.6
		c4,0.2,7.9-1,11.1-3.4c31.1-23.7,69.2-36.5,108.3-36.1c39.1,0.3,77,13.7,107.7,37.9c3.3,2.5,7.4,3.7,11.6,3.4
		c4.2-0.3,8.1-2.1,11-5.1l1-1c1.3-1.8,3.2-3,5.4-3.4c2.6-0.4,5.3,0.4,7.2,2.3c28.6,28.5,48.1,64.8,56,104.3
		c7.9,39.5,3.9,80.6-11.5,117.8c-15.4,37.3-41.6,69.1-75.1,91.5C429.8,438,390.3,449.9,350,449.9L350,449.9z M213.4,118.2
		c-32.7,34.6-50.9,80.4-50.7,128c0,40.8,13.3,80.5,37.9,113.1c24.6,32.6,59.2,56.2,98.4,67.3c39.3,11.1,81.1,9.1,119.1-5.7
		c38-14.8,70.2-41.7,91.5-76.4c21.4-34.8,30.8-75.6,26.9-116.2c-3.9-40.6-21-78.8-48.7-108.9c-5.9,4.2-12.9,6.4-20.1,6.3
		c-7.2-0.1-14.2-2.6-19.9-6.9c-27.8-22-62.1-34.1-97.5-34.5c-35.4-0.3-70,11.2-98.1,32.7c-5.5,4.3-12.2,6.7-19.1,6.9
		C226,124,219.1,122.1,213.4,118.2L213.4,118.2z"/>
</g>
</svg>
